<svg width="24" height="24" viewBox="0 0 24 24" fill="none" xmlns="http://www.w3.org/2000/svg">
<path d="M5.97895 18C5.20187 18 4.56374 17.9166 4.06456 17.7498C3.56538 17.5831 3.18456 17.2961 2.92211 16.889C2.65965 16.4819 2.52842 15.9227 2.52842 15.2115L2.57474 13.946C2.57474 13.4703 2.50012 13.1416 2.35088 12.9601C2.20164 12.7738 1.97263 12.6806 1.66386 12.6806H1V11.3342H1.64842C1.97778 11.3342 2.21965 11.2385 2.37404 11.0472C2.53357 10.8559 2.61333 10.5518 2.61333 10.1349L2.57474 8.7149C2.57474 7.8222 2.82947 7.14776 3.33895 6.6916C3.85357 6.23053 4.60749 6 5.6007 6H6.88211V7.36113H5.33053C4.99088 7.36113 4.73871 7.46168 4.57404 7.66278C4.4145 7.86389 4.33474 8.16554 4.33474 8.56775L4.36561 9.96567C4.36561 10.4071 4.26526 10.8044 4.06456 11.1576C3.86901 11.5058 3.59368 11.7879 3.2386 12.0037C3.56795 12.2048 3.83298 12.4942 4.03368 12.8719C4.23439 13.2495 4.33474 13.6763 4.33474 14.1521L4.30386 15.2115C4.30386 15.7216 4.41708 16.092 4.64351 16.3225C4.86994 16.553 5.24047 16.6683 5.75509 16.6683H6.85895V18H5.97895Z" fill="#B6B9B8"/>
<path d="M17.1411 18V16.6683H18.2449C18.7595 16.6683 19.1301 16.553 19.3565 16.3225C19.5829 16.092 19.6961 15.7216 19.6961 15.2115L19.6653 14.1521C19.6653 13.6763 19.7656 13.2495 19.9663 12.8719C20.167 12.4942 20.432 12.2048 20.7614 12.0037C20.4063 11.7879 20.1284 11.5058 19.9277 11.1576C19.7322 10.8044 19.6344 10.4071 19.6344 9.96567L19.6653 8.56775C19.6653 8.16554 19.5829 7.86389 19.4182 7.66278C19.2587 7.46168 19.0091 7.36113 18.6695 7.36113H17.1179V6H18.3993C19.3925 6 20.1439 6.23053 20.6533 6.6916C21.168 7.14776 21.4253 7.8222 21.4253 8.7149L21.3867 10.1349C21.3867 10.5518 21.4639 10.8559 21.6182 11.0472C21.7778 11.2385 22.0222 11.3342 22.3516 11.3342H23V12.6806H22.3361C22.0274 12.6806 21.7984 12.7738 21.6491 12.9601C21.4999 13.1416 21.4253 13.4703 21.4253 13.946L21.4716 15.2115C21.4716 15.9227 21.3404 16.4819 21.0779 16.889C20.8154 17.2961 20.4346 17.5831 19.9354 17.7498C19.4363 17.9166 18.7981 18 18.0211 18H17.1411Z" fill="#B6B9B8"/>
</svg>
