<svg fill="none" height="160" viewBox="0 0 192 160" width="192" xmlns="http://www.w3.org/2000/svg" xmlns:xlink="http://www.w3.org/1999/xlink"><mask id="a" height="24" maskUnits="userSpaceOnUse" width="21" x="137" y="124"><path clip-rule="evenodd" d="m137.943 124.609h19.419v23.373h-19.419z" fill="#fff" fill-rule="evenodd"/></mask><mask id="b" height="3" maskUnits="userSpaceOnUse" width="7" x="58" y="48"><path clip-rule="evenodd" d="m58.1772 48.0619h6.2514v2.3874h-6.2514z" fill="#fff" fill-rule="evenodd"/></mask><mask id="c" height="68" maskUnits="userSpaceOnUse" width="52" x="28" y="63"><path clip-rule="evenodd" d="m64.969 72.1305s-9.946 1.774-12.258 3.006l-7.17-8.326-2.467.849 4.934 8.787s.077 16.037-8.942 11.257c0 0 .883 8.653 1.871 14.0315-.97.923-1.934 2.052-3.214 3.327-4.237 4.223-5.008 14.037-9.723 17.705.623 3.879 4.339 6.753 8.226 7.32 3.886.568 7.832-.779 11.233-2.745.98-.567 1.988-1.205 3.119-1.248 1.547-.06 2.885.988 4.328 1.549 4.246 1.652 8.858-1.009 12.546-3.684 3.689-2.675 7.96-5.639 12.396-4.601-.655-.154-1.67-1.449-2.171-1.91-.767-.706-1.515-1.433-2.232-2.19-1.362-1.44-2.625-2.991-3.633-4.702-1.371-2.325-2.158-4.884-2.709-7.497-.269-1.279-.481-2.571-.679-3.8565-.295-1.932-.66-4.19-.063-6.102 1.157-3.701 5.319-8.557 3.933-14.186-1.388-5.627-15.007-15.484-15.007-15.484" fill="#fff" fill-rule="evenodd"/></mask><mask id="d" height="68" maskUnits="userSpaceOnUse" width="52" x="28" y="63"><path clip-rule="evenodd" d="m64.969 72.1305s-9.946 1.774-12.258 3.006l-7.17-8.326-2.467.849 4.934 8.787s.077 16.037-8.942 11.257c0 0 .883 8.653 1.871 14.0315-.97.923-1.934 2.052-3.214 3.327-4.237 4.223-5.008 14.037-9.723 17.705.623 3.879 4.339 6.753 8.226 7.32 3.886.568 7.832-.779 11.233-2.745.98-.567 1.988-1.205 3.119-1.248 1.547-.06 2.885.988 4.328 1.549 4.246 1.652 8.858-1.009 12.546-3.684 3.689-2.675 7.96-5.639 12.396-4.601-.655-.154-1.67-1.449-2.171-1.91-.767-.706-1.515-1.433-2.232-2.19-1.362-1.44-2.625-2.991-3.633-4.702-1.371-2.325-2.158-4.884-2.709-7.497-.269-1.279-.481-2.571-.679-3.8565-.295-1.932-.66-4.19-.063-6.102 1.157-3.701 5.319-8.557 3.933-14.186-1.388-5.627-15.007-15.484-15.007-15.484" fill="#fff" fill-rule="evenodd"/></mask><mask id="e" height="68" maskUnits="userSpaceOnUse" width="52" x="28" y="63"><path clip-rule="evenodd" d="m64.969 72.1305s-9.946 1.774-12.258 3.006l-7.17-8.326-2.467.849 4.934 8.787s.077 16.037-8.942 11.257c0 0 .883 8.653 1.871 14.0315-.97.923-1.934 2.052-3.214 3.327-4.237 4.223-5.008 14.037-9.723 17.705.623 3.879 4.339 6.753 8.226 7.32 3.886.568 7.832-.779 11.233-2.745.98-.567 1.988-1.205 3.119-1.248 1.547-.06 2.885.988 4.328 1.549 4.246 1.652 8.858-1.009 12.546-3.684 3.689-2.675 7.96-5.639 12.396-4.601-.655-.154-1.67-1.449-2.171-1.91-.767-.706-1.515-1.433-2.232-2.19-1.362-1.44-2.625-2.991-3.633-4.702-1.371-2.325-2.158-4.884-2.709-7.497-.269-1.279-.481-2.571-.679-3.8565-.295-1.932-.66-4.19-.063-6.102 1.157-3.701 5.319-8.557 3.933-14.186-1.388-5.627-15.007-15.484-15.007-15.484" fill="#fff" fill-rule="evenodd"/></mask><mask id="f" height="68" maskUnits="userSpaceOnUse" width="52" x="28" y="63"><path clip-rule="evenodd" d="m64.969 72.1305s-9.946 1.774-12.258 3.006l-7.17-8.326-2.467.849 4.934 8.787s.077 16.037-8.942 11.257c0 0 .883 8.653 1.871 14.0315-.97.923-1.934 2.052-3.214 3.327-4.237 4.223-5.008 14.037-9.723 17.705.623 3.879 4.339 6.753 8.226 7.32 3.886.568 7.832-.779 11.233-2.745.98-.567 1.988-1.205 3.119-1.248 1.547-.06 2.885.988 4.328 1.549 4.246 1.652 8.858-1.009 12.546-3.684 3.689-2.675 7.96-5.639 12.396-4.601-.655-.154-1.67-1.449-2.171-1.91-.767-.706-1.515-1.433-2.232-2.19-1.362-1.44-2.625-2.991-3.633-4.702-1.371-2.325-2.158-4.884-2.709-7.497-.269-1.279-.481-2.571-.679-3.8565-.295-1.932-.66-4.19-.063-6.102 1.157-3.701 5.319-8.557 3.933-14.186-1.388-5.627-15.007-15.484-15.007-15.484" fill="#fff" fill-rule="evenodd"/></mask><mask id="g" height="68" maskUnits="userSpaceOnUse" width="52" x="28" y="63"><path clip-rule="evenodd" d="m64.969 72.1305s-9.946 1.774-12.258 3.006l-7.17-8.326-2.467.849 4.934 8.787s.077 16.037-8.942 11.257c0 0 .883 8.653 1.871 14.0315-.97.923-1.934 2.052-3.214 3.327-4.237 4.223-5.008 14.037-9.723 17.705.623 3.879 4.339 6.753 8.226 7.32 3.886.568 7.832-.779 11.233-2.745.98-.567 1.988-1.205 3.119-1.248 1.547-.06 2.885.988 4.328 1.549 4.246 1.652 8.858-1.009 12.546-3.684 3.689-2.675 7.96-5.639 12.396-4.601-.655-.154-1.67-1.449-2.171-1.91-.767-.706-1.515-1.433-2.232-2.19-1.362-1.44-2.625-2.991-3.633-4.702-1.371-2.325-2.158-4.884-2.709-7.497-.269-1.279-.481-2.571-.679-3.8565-.295-1.932-.66-4.19-.063-6.102 1.157-3.701 5.319-8.557 3.933-14.186-1.388-5.627-15.007-15.484-15.007-15.484" fill="#fff" fill-rule="evenodd"/></mask><mask id="h" height="68" maskUnits="userSpaceOnUse" width="52" x="28" y="63"><path clip-rule="evenodd" d="m64.969 72.1305s-9.946 1.774-12.258 3.006l-7.17-8.326-2.467.849 4.934 8.787s.077 16.037-8.942 11.257c0 0 .883 8.653 1.871 14.0315-.97.923-1.934 2.052-3.214 3.327-4.237 4.223-5.008 14.037-9.723 17.705.623 3.879 4.339 6.753 8.226 7.32 3.886.568 7.832-.779 11.233-2.745.98-.567 1.988-1.205 3.119-1.248 1.547-.06 2.885.988 4.328 1.549 4.246 1.652 8.858-1.009 12.546-3.684 3.689-2.675 7.96-5.639 12.396-4.601-.655-.154-1.67-1.449-2.171-1.91-.767-.706-1.515-1.433-2.232-2.19-1.362-1.44-2.625-2.991-3.633-4.702-1.371-2.325-2.158-4.884-2.709-7.497-.269-1.279-.481-2.571-.679-3.8565-.295-1.932-.66-4.19-.063-6.102 1.157-3.701 5.319-8.557 3.933-14.186-1.388-5.627-15.007-15.484-15.007-15.484" fill="#fff" fill-rule="evenodd"/></mask><mask id="i" height="68" maskUnits="userSpaceOnUse" width="52" x="28" y="63"><path clip-rule="evenodd" d="m64.969 72.1305s-9.946 1.774-12.258 3.006l-7.17-8.326-2.467.849 4.934 8.787s.077 16.037-8.942 11.257c0 0 .883 8.653 1.871 14.0315-.97.923-1.934 2.052-3.214 3.327-4.237 4.223-5.008 14.037-9.723 17.705.623 3.879 4.339 6.753 8.226 7.32 3.886.568 7.832-.779 11.233-2.745.98-.567 1.988-1.205 3.119-1.248 1.547-.06 2.885.988 4.328 1.549 4.246 1.652 8.858-1.009 12.546-3.684 3.689-2.675 7.96-5.639 12.396-4.601-.655-.154-1.67-1.449-2.171-1.91-.767-.706-1.515-1.433-2.232-2.19-1.362-1.44-2.625-2.991-3.633-4.702-1.371-2.325-2.158-4.884-2.709-7.497-.269-1.279-.481-2.571-.679-3.8565-.295-1.932-.66-4.19-.063-6.102 1.157-3.701 5.319-8.557 3.933-14.186-1.388-5.627-15.007-15.484-15.007-15.484" fill="#fff" fill-rule="evenodd"/></mask><mask id="j" height="68" maskUnits="userSpaceOnUse" width="52" x="28" y="63"><path clip-rule="evenodd" d="m64.969 72.1305s-9.946 1.774-12.258 3.006l-7.17-8.326-2.467.849 4.934 8.787s.077 16.037-8.942 11.257c0 0 .883 8.653 1.871 14.0315-.97.923-1.934 2.052-3.214 3.327-4.237 4.223-5.008 14.037-9.723 17.705.623 3.879 4.339 6.753 8.226 7.32 3.886.568 7.832-.779 11.233-2.745.98-.567 1.988-1.205 3.119-1.248 1.547-.06 2.885.988 4.328 1.549 4.246 1.652 8.858-1.009 12.546-3.684 3.689-2.675 7.96-5.639 12.396-4.601-.655-.154-1.67-1.449-2.171-1.91-.767-.706-1.515-1.433-2.232-2.19-1.362-1.44-2.625-2.991-3.633-4.702-1.371-2.325-2.158-4.884-2.709-7.497-.269-1.279-.481-2.571-.679-3.8565-.295-1.932-.66-4.19-.063-6.102 1.157-3.701 5.319-8.557 3.933-14.186-1.388-5.627-15.007-15.484-15.007-15.484" fill="#fff" fill-rule="evenodd"/></mask><mask id="k" height="68" maskUnits="userSpaceOnUse" width="52" x="28" y="63"><path clip-rule="evenodd" d="m64.969 72.1305s-9.946 1.774-12.258 3.006l-7.17-8.326-2.467.849 4.934 8.787s.077 16.037-8.942 11.257c0 0 .883 8.653 1.871 14.0315-.97.923-1.934 2.052-3.214 3.327-4.237 4.223-5.008 14.037-9.723 17.705.623 3.879 4.339 6.753 8.226 7.32 3.886.568 7.832-.779 11.233-2.745.98-.567 1.988-1.205 3.119-1.248 1.547-.06 2.885.988 4.328 1.549 4.246 1.652 8.858-1.009 12.546-3.684 3.689-2.675 7.96-5.639 12.396-4.601-.655-.154-1.67-1.449-2.171-1.91-.767-.706-1.515-1.433-2.232-2.19-1.362-1.44-2.625-2.991-3.633-4.702-1.371-2.325-2.158-4.884-2.709-7.497-.269-1.279-.481-2.571-.679-3.8565-.295-1.932-.66-4.19-.063-6.102 1.157-3.701 5.319-8.557 3.933-14.186-1.388-5.627-15.007-15.484-15.007-15.484" fill="#fff" fill-rule="evenodd"/></mask><mask id="l" height="68" maskUnits="userSpaceOnUse" width="52" x="28" y="63"><path clip-rule="evenodd" d="m64.969 72.1305s-9.946 1.774-12.258 3.006l-7.17-8.326-2.467.849 4.934 8.787s.077 16.037-8.942 11.257c0 0 .883 8.653 1.871 14.0315-.97.923-1.934 2.052-3.214 3.327-4.237 4.223-5.008 14.037-9.723 17.705.623 3.879 4.339 6.753 8.226 7.32 3.886.568 7.832-.779 11.233-2.745.98-.567 1.988-1.205 3.119-1.248 1.547-.06 2.885.988 4.328 1.549 4.246 1.652 8.858-1.009 12.546-3.684 3.689-2.675 7.96-5.639 12.396-4.601-.655-.154-1.67-1.449-2.171-1.91-.767-.706-1.515-1.433-2.232-2.19-1.362-1.44-2.625-2.991-3.633-4.702-1.371-2.325-2.158-4.884-2.709-7.497-.269-1.279-.481-2.571-.679-3.8565-.295-1.932-.66-4.19-.063-6.102 1.157-3.701 5.319-8.557 3.933-14.186-1.388-5.627-15.007-15.484-15.007-15.484" fill="#fff" fill-rule="evenodd"/></mask><mask id="m" height="68" maskUnits="userSpaceOnUse" width="52" x="28" y="63"><path clip-rule="evenodd" d="m64.969 72.1305s-9.946 1.774-12.258 3.006l-7.17-8.326-2.467.849 4.934 8.787s.077 16.037-8.942 11.257c0 0 .883 8.653 1.871 14.0315-.97.923-1.934 2.052-3.214 3.327-4.237 4.223-5.008 14.037-9.723 17.705.623 3.879 4.339 6.753 8.226 7.32 3.886.568 7.832-.779 11.233-2.745.98-.567 1.988-1.205 3.119-1.248 1.547-.06 2.885.988 4.328 1.549 4.246 1.652 8.858-1.009 12.546-3.684 3.689-2.675 7.96-5.639 12.396-4.601-.655-.154-1.67-1.449-2.171-1.91-.767-.706-1.515-1.433-2.232-2.19-1.362-1.44-2.625-2.991-3.633-4.702-1.371-2.325-2.158-4.884-2.709-7.497-.269-1.279-.481-2.571-.679-3.8565-.295-1.932-.66-4.19-.063-6.102 1.157-3.701 5.319-8.557 3.933-14.186-1.388-5.627-15.007-15.484-15.007-15.484" fill="#fff" fill-rule="evenodd"/></mask><mask id="n" height="68" maskUnits="userSpaceOnUse" width="52" x="28" y="63"><path clip-rule="evenodd" d="m64.969 72.1305s-9.946 1.774-12.258 3.006l-7.17-8.326-2.467.849 4.934 8.787s.077 16.037-8.942 11.257c0 0 .883 8.653 1.871 14.0315-.97.923-1.934 2.052-3.214 3.327-4.237 4.223-5.008 14.037-9.723 17.705.623 3.879 4.339 6.753 8.226 7.32 3.886.568 7.832-.779 11.233-2.745.98-.567 1.988-1.205 3.119-1.248 1.547-.06 2.885.988 4.328 1.549 4.246 1.652 8.858-1.009 12.546-3.684 3.689-2.675 7.96-5.639 12.396-4.601-.655-.154-1.67-1.449-2.171-1.91-.767-.706-1.515-1.433-2.232-2.19-1.362-1.44-2.625-2.991-3.633-4.702-1.371-2.325-2.158-4.884-2.709-7.497-.269-1.279-.481-2.571-.679-3.8565-.295-1.932-.66-4.19-.063-6.102 1.157-3.701 5.319-8.557 3.933-14.186-1.388-5.627-15.007-15.484-15.007-15.484" fill="#fff" fill-rule="evenodd"/></mask><mask id="o" height="68" maskUnits="userSpaceOnUse" width="52" x="28" y="63"><path clip-rule="evenodd" d="m64.969 72.1305s-9.946 1.774-12.258 3.006l-7.17-8.326-2.467.849 4.934 8.787s.077 16.037-8.942 11.257c0 0 .883 8.653 1.871 14.0315-.97.923-1.934 2.052-3.214 3.327-4.237 4.223-5.008 14.037-9.723 17.705.623 3.879 4.339 6.753 8.226 7.32 3.886.568 7.832-.779 11.233-2.745.98-.567 1.988-1.205 3.119-1.248 1.547-.06 2.885.988 4.328 1.549 4.246 1.652 8.858-1.009 12.546-3.684 3.689-2.675 7.96-5.639 12.396-4.601-.655-.154-1.67-1.449-2.171-1.91-.767-.706-1.515-1.433-2.232-2.19-1.362-1.44-2.625-2.991-3.633-4.702-1.371-2.325-2.158-4.884-2.709-7.497-.269-1.279-.481-2.571-.679-3.8565-.295-1.932-.66-4.19-.063-6.102 1.157-3.701 5.319-8.557 3.933-14.186-1.388-5.627-15.007-15.484-15.007-15.484" fill="#fff" fill-rule="evenodd"/></mask><mask id="p" height="68" maskUnits="userSpaceOnUse" width="52" x="28" y="63"><path clip-rule="evenodd" d="m64.969 72.1305s-9.946 1.774-12.258 3.006l-7.17-8.326-2.467.849 4.934 8.787s.077 16.037-8.942 11.257c0 0 .883 8.653 1.871 14.0315-.97.923-1.934 2.052-3.214 3.327-4.237 4.223-5.008 14.037-9.723 17.705.623 3.879 4.339 6.753 8.226 7.32 3.886.568 7.832-.779 11.233-2.745.98-.567 1.988-1.205 3.119-1.248 1.547-.06 2.885.988 4.328 1.549 4.246 1.652 8.858-1.009 12.546-3.684 3.689-2.675 7.96-5.639 12.396-4.601-.655-.154-1.67-1.449-2.171-1.91-.767-.706-1.515-1.433-2.232-2.19-1.362-1.44-2.625-2.991-3.633-4.702-1.371-2.325-2.158-4.884-2.709-7.497-.269-1.279-.481-2.571-.679-3.8565-.295-1.932-.66-4.19-.063-6.102 1.157-3.701 5.319-8.557 3.933-14.186-1.388-5.627-15.007-15.484-15.007-15.484" fill="#fff" fill-rule="evenodd"/></mask><mask id="q" height="68" maskUnits="userSpaceOnUse" width="52" x="28" y="63"><path clip-rule="evenodd" d="m64.969 72.1305s-9.946 1.774-12.258 3.006l-7.17-8.326-2.467.849 4.934 8.787s.077 16.037-8.942 11.257c0 0 .883 8.653 1.871 14.0315-.97.923-1.934 2.052-3.214 3.327-4.237 4.223-5.008 14.037-9.723 17.705.623 3.879 4.339 6.753 8.226 7.32 3.886.568 7.832-.779 11.233-2.745.98-.567 1.988-1.205 3.119-1.248 1.547-.06 2.885.988 4.328 1.549 4.246 1.652 8.858-1.009 12.546-3.684 3.689-2.675 7.96-5.639 12.396-4.601-.655-.154-1.67-1.449-2.171-1.91-.767-.706-1.515-1.433-2.232-2.19-1.362-1.44-2.625-2.991-3.633-4.702-1.371-2.325-2.158-4.884-2.709-7.497-.269-1.279-.481-2.571-.679-3.8565-.295-1.932-.66-4.19-.063-6.102 1.157-3.701 5.319-8.557 3.933-14.186-1.388-5.627-15.007-15.484-15.007-15.484" fill="#fff" fill-rule="evenodd"/></mask><mask id="r" height="60" maskUnits="userSpaceOnUse" width="34" x="157" y="89"><path clip-rule="evenodd" d="m190.583 89h-33.583v59.999h33.583z" fill="#2df" fill-rule="evenodd"/></mask><mask id="s" height="60" maskUnits="userSpaceOnUse" width="34" x="157" y="89"><path clip-rule="evenodd" d="m164.485 89.0449c1.023 1.2659 1.63 2.7471 2.174 4.2475.284.7772.221.7848 1.023.7828.423-.001.737-.0908.944-.5064.227-.4569.513-.8861.796-1.3158.565-.8574 1.105-1.7339 1.726-2.5499.742-.9749 1.713-.8867 2.327.1624.52.8896.873 1.8474 1.188 2.8238.698 2.1691 1.13 4.3978 1.505 6.6381.053.3117.097.6218.35.8286.35-.138.646-.2582.945-.3712.305-.1155.667-.2748.826.1483.15.3999-.224.5499-.508.6979-.258.133-.519.266-.795.359-.516.174-.361.517-.254.857.107.336.277.629.69.452.464-.201.965-.112 1.432-.249.262-.076.549-.125.617.232.064.337-.225.418-.478.493-.372.114-.75.207-1.116.334-.232.08-.398.227-.251.51.478.921.871 1.898 1.433 2.773l.017-.006c.009.012.017.023.026.035.012.019.027.042.043.067-.005.003-.011.004-.016.005.061.092.122.185.185.275 1.344 2.332 7.1 13.768 8.712 17.297-1.711 1.68-3.994 2.662-6.42 2.628-1.214-.016-2.413-.274-3.542-.708-1.161-.447-2.279-1.059-3.148-1.953-.778-.801-1.311-1.801-1.504-2.9-.101-.579-.105-1.175-.033-1.758.075-.629.273-1.192.596-1.739.305-.521.669-1.007.937-1.548.276-.554.394-1.134.424-1.749.064-1.256-.187-2.521.124-3.758.254-1.011.811-1.922 1.602-2.613.601-.528 1.315-.899 2.071-1.156-.068.015-.137.032-.205.049-.061.013-.12.028-.181.032-.099.009-.196-.003-.293-.015-.07-.009-.14-.019-.21-.027-.72.346-1.376.816-1.901 1.417-.724.825-1.16 1.845-1.3 2.926-.17 1.325.198 2.687-.114 4-.031.126-.069.249-.114.37-.021.116-.072.233-.151.359-.22.455-.511.879-.785 1.313-.144.291-.277.588-.392.896-.307.816-.44 1.637-.444 2.467.044.517.146 1.028.314 1.498.385 1.084 1.102 2.021 2.007 2.737 1.014.806 2.251 1.367 3.495 1.731 1.175.345 2.414.496 3.641.394 2.21-.185 3.963-1.223 5.641-2.561 2.003 3.921 3.2 10.399 1.414 14.612-1.463 3.451-4.498 4.729-7.618 6.242-2.276 1.104-4.695 1.749-7.128 2.369-.314.08-.628.161-.937.255-1.331.409-2.703.516-4.081.663-1.538.165-3.076.287-4.615.405-1.227.095-2.453.075-3.671-.087-1.341-.178-1.711-.502-1.956-1.63-.533-2.44 2.896-3.164 4.568-3.595 2.34-.604 4.743-.903 7.124-1.288 3.555-.577 7.169-1.527 10.506-2.874.604-.243 1.324-.304 1.818-.937-.441-.111-.808-.021-1.177.026-.962.122-1.918.334-2.893.314-2.202-.046-4.39.229-6.589.284-2.032.05-4.055.114-6.08-.235-.751-.129-1.516-.363-2.301-.248-.87.13-1.725.046-2.592-.068-.591-.075-1.042-.305-1.405-.748-.032-.236-.063-.472-.094-.706.464-.593.894-1.028 1.251-1.472l-.082-.009c.017-.051.036-.099.053-.15.029.03.058.059.085.089.479-.612.806-1.257.865-2.361.409-7.753 1.073-15.528.798-23.272-.032-.902-.407-1.451-1.298-1.775-1.296-.473-2.322-1.271-2.587-2.73-.056-.313-.094-.63-.146-.943-.054-.323-.213-.5-.584-.5-.45 0-.905-.038-1.352-.102-.217-.032-.459-.148-.435-.425.02-.254.214-.379.472-.393.417-.022.834-.053 1.249-.061.333-.006.449-.192.487-.48.041-.303-.149-.37-.389-.437-.432-.125-.858-.273-1.286-.414-.233-.078-.422-.225-.397-.479.031-.317.321-.388.577-.404.185-.013.379.06.564.114.186.054.36.15.548.192.381.088.611.006.611-.466 0-.539.032-1.0879.137-1.6164.386-1.9317.895-3.828 1.588-5.6799.269-.7212.666-1.3784.914-2.1031.281-.8216.697-1.5705 1.317-2.1974.222-.0439.444-.0762.666-.0762.142 0 .284.0131.425.0449z" fill="#2df" fill-rule="evenodd"/></mask><path clip-rule="evenodd" d="m32.3305 95.6895c.7194-.2173.9242-.5618.5752-1.2741-.4628-.9476-.9695-1.87-1.4614-2.8014-.1398-.2679-.2773-.5421-.6384-.4646-.3584.0775-.3835.3844-.4426.6868-.2195 1.1415-.2621 2.3023-.379 3.4554-.0753.7509-.1223.7451.3311.7643.8642.0551 1.43-.189 2.0151-.3664z" fill="#7aa2ff" fill-rule="evenodd"/><path clip-rule="evenodd" d="m30.0977 137.118c-.0646.448-.1277.896-.1882 1.346-.078.566-.1483 1.168.0838 1.689.3844.866 1.4157 1.176 2.2117 1.681.1344.086.2693.184.3481.322.1748.311.005.727-.2804.939-.2849.212-.6501.271-1.0008.324-1.5071.231-2.7929.604-4.334.58-1.6755-.025-3.515-.096-5.1273-.606-1.0569-.263-2.111-.63-3.1983-.587-.4879.021-.9704.123-1.4582.13-1.0121.014-2.0228-.408-2.7288-1.138-.7074-.728-1.1003-1.757-1.0627-2.777.0641-1.751 1.2956-3.222 1.7808-4.903.4588-1.59.2308-3.287.1022-4.937-.1277-1.652-.1241-3.413.723-4.833.5206-.873 1.3467-1.558 2.2978-1.904.9538-.347 1.99-.355 3.0043-.37 3.3537-.048 6.8455-.176 9.9017 1.22.3772.173.7728.395.9341.782.3835.91-.1904 2.305-.366 3.216-.2393 1.25-.4673 2.505-.6846 3.759-.3494 2.017-.6684 4.04-.9582 6.067z" fill="#2950ac" fill-rule="evenodd"/><path clip-rule="evenodd" d="m31.8502 102.546c-1.5693.449-3.3111.263-4.63-.568-.3477-.219-.5556-.575-.5686-1.062-.0188-.626.2509-.886.7428-.566 1.3225.856 2.688.803 4.1136.457.7163-.173 1.2812-.568 1.7602-1.155.3628-.4493.6867-.9434 1.0456-1.3928.2567-.3221.5949-.5385.96-.3055.3965.2544.3925.6894.2451 1.1428-.5878 1.8295-2.0335 2.9835-3.6687 3.4495z" fill="#77c9ff" fill-rule="evenodd"/><path clip-rule="evenodd" d="m28.0315 106.816c-.6796-.098-1.1429-.558-1.6254-.981-.0976-.084-.0466-.205.0233-.294.091-.115.2137-.127.3347-.069.1743.085.3512.166.5134.275.6267.41 1.1545.202 1.6486-.269.2469-.233.4982-.461.7397-.698.1841-.181.4399-.27.6151-.148.2047.146.0587.41-.0466.597-.4968.893-1.2351 1.42-2.2028 1.587z" fill="#7aa2ff" fill-rule="evenodd"/><path clip-rule="evenodd" d="m28.9307 103.647c-.0233.103-.043.256-.0932.4-.1147.333-.4122.545-.8297.528-.4606-.017-.6523-.326-.6505-.65.0018-.334.009-.671.0287-1.006.0161-.263.1612-.531.5931-.577.4211-.045.5627.182.6935.423.147.264.2348.543.2581.882z" fill="#7aa2ff" fill-rule="evenodd"/><path clip-rule="evenodd" d="m35.0901 107.484h-.0014c0 .003-.0031.005-.0031.008z" fill="#20d3f3" fill-rule="evenodd"/><path clip-rule="evenodd" d="m20.1964 95.3235c.2791-1.1671.8306-2.2418 1.3158-3.3376.0968-.2196.2504-.3916.5085-.4014.2818-.0103.4041.2302.4758.4224.4103 1.1303 1.2158 2.0823 1.5572 3.2453.1313.4471.0582.6904-.4014.8199-.7889.2249-1.5989.3445-2.2028.4399-1.435-.0197-1.5125-.0954-1.2531-1.1885z" fill="#7aa2ff" fill-rule="evenodd"/><path clip-rule="evenodd" d="m6.70532 126.754c.28851-.674 2.74579-6.753 8.51068-10.782 1.2588-.878 2.4604-1.837 3.7551-2.663 1.0143-.648 2.3041-1.153 2.8112-2.318.2777-.635.3875-1.328.495-2.011 3.1405.822 6.4508.574 9.6889.32.1832 1.208 2.3726 12.829 1.2199 15.569-.2222.527-.6379.939-.8203 1.478-.0242.032-.0488.064-.073.094-.1259.136-.2531.272-.3768.409-.5842.644-2.0545 1.022-2.7892 1.462 0 0-1.3373 13.03-1.0783 13.174.7665.423 1.8959.698 2.5473 1.243.181.151.3167.376.3033.61-.0247.391-.4328.506-.7589.528-3.291.217-6.5914.119-9.8856.051-2.9375-.062-6.0157.047-8.899-.582-.5049-.111-1.0219-.255-1.41707-.586-.29568-.248-8.34624-8.959-9.044218-23.168-.155456-3.168-.100345-6.352.354378-9.493.55507-3.842 1.75302-7.632 4.67577-10.3429.44128-.409.91301-.7849 1.43493-1.0725.81178-.4489 1.67329-.5389 2.43981.0108.6922.495 1.2284 1.7866 1.0488 2.5856.0134.1.0345.199.0403.3.1017 1.651-2.75163 7.658-3.25607 9.516-1.03175 3.793-1.73958 7.672-2.11008 11.584-.06496.676-.28582 4.401 1.10119 4.228.01478-.002.043-.053.08198-.144z" fill="#172e63" fill-rule="evenodd"/><path clip-rule="evenodd" d="m34.1869 99.6337c-.2325-.1344-.4484-.0099-.6119.1756-.2299.2587-.435.5427-.6667.8017-.3041.338-.6657.565-1.1226.665-.9086.199-1.7795.229-2.6231-.263-.3136-.185-.4852-.035-.4735.325.0085.281.1407.486.3615.611 1.7239.981 4.5557.411 5.2927-1.658.0932-.261.0968-.5108-.1564-.6573zm-4.3491 5.4203c-.1421-.098-.3517-.028-.5009.116-.1967.19-.4032.372-.6035.557-.4032.375-.835.541-1.3466.213-.1327-.085-.2769-.15-.4189-.218-.099-.046-.198-.036-.272.056-.0586.07-.1003.167-.0192.235.3924.336.7705.702 1.3252.78.7898-.133 1.3923-.553 1.7991-1.265.0847-.148.2039-.358.0368-.474zm-8.2723-8.6531c.4829-.0829 1.1307-.1855 1.7615-.3768.3687-.1111.4274-.3212.3221-.7029-.2728-.9981-.9171-1.8144-1.2463-2.7821-.056-.1648-.1551-.3709-.3808-.3624-.2061.0085-.328.1559-.4055.3441-.3875.9381-.8301 1.8596-1.0519 2.8614-.2079.9358-.1456 1.0017 1.0009 1.0187zm6.0202 7.3691c-.0009.278.1263.546.4341.561.2768.014.4762-.169.5515-.455.0331-.125.0474-.256.0618-.346-.0144-.293-.0739-.532-.1716-.762-.0874-.207-.1814-.403-.4619-.363-.2876.04-.3839.269-.3947.498-.0121.288-.0179.578-.0192.867zm2.9536-8.1903c.7504.0453 1.2419-.155 1.7513-.3001.6249-.1779.8028-.4601.4995-1.0443-.4032-.7764-.8418-1.5317-1.2692-2.2942-.1214-.2187-.2419-.4431-.5555-.3795-.3105.0636-.332.315-.3831.5627-.1922.9332-.228 1.8852-.3293 2.8296-.0658.6151-.1061.6101.2863.6258zm5.5265 10.0113c-.4103 1.085-1.0877 2.053-1.8739 2.889-1.3136 1.399-3.7708 1.425-5.5086 1.718-2.034.342-4.1754.26-6.1757-.325-.952-.28-1.7607-.562-2.4165-1.339-.5287-.626-.9319-1.354-1.2145-2.128-.7979-2.179-.7124-4.659-.1743-6.8897.2007-.836.8687-4.5468 1.1679-5.5274.4915-1.611.9879-3.2207 1.5864-4.7932.0752-.1953.1348-.4296.3664-.4323.2097-.0009.2733.2343.3495.4041.9506 2.1025 1.8968 4.2072 2.8461 6.311.31.6859.3974 1.2082 1.2047 1.2096.7316.0009 1.5734-.22 2.2248-.5542.5286-.2733.538-.5237.6012-1.1469.0013-.0134.0049-.0282.0063-.0439.2325-2.154.4636-4.3088.7002-6.4651.0179-.1648-.0457-.3991.155-.4636.1944-.0637.3588.0963.4735.2428.5954.7589 4.7188 6.0318 6.031 11.5543.3817 1.6045.2769 3.3035-.0892 4.9155-.0667.297-.1541.583-.2603.864z" fill="#172e63" fill-rule="evenodd"/><path clip-rule="evenodd" d="m32.4846 110.922c-1.2486.507-2.5904.602-3.9312.698-.6541.048-1.3095.081-1.9649.119-.5806.036-.7437-.13-.6667-.613.0448-.277.2536-.297.4812-.318.8767-.079 1.7561-.138 2.6306-.238 1.1232-.131 2.2212-.389 3.3229-.618l.1294.007c.0587.307.2563.613.0372.93-.0184.006-.0309.017-.0385.033z" fill="#7aa2ff" fill-rule="evenodd"/><path clip-rule="evenodd" d="m21.6223 111.399c-.0524-.13-.1116-.258-.1568-.391-.1219-.353.0313-.623.3575-.6.5129.033 1.0201.133 1.5214.264.4341.115.3073.522.2854.824-.0233.356-.2903.221-.4606.196-.4896-.071-.9762-.169-1.4645-.258-.0282-.01-.0547-.022-.0824-.035z" fill="#7aa2ff" fill-rule="evenodd"/><path clip-rule="evenodd" d="m24.8126 111.422c-.2473-.016-.5618.027-.5659-.354-.0053-.381.3051-.365.5618-.357.2366.008.5175.011.5121.367-.004.34-.2258.39-.508.344z" fill="#7aa2ff" fill-rule="evenodd"/><path clip-rule="evenodd" d="m22.9269 103.68c1.0196.001 2.0608-.396 2.7543-1.101.1828-.187.2616-.429.2038-.716-.0739-.371-.2733-.477-.5304-.209-.6922.721-1.5353.918-2.4524.951-.4623.018-.8619-.119-1.2324-.384-.284-.202-.547-.436-.8288-.642-.1994-.144-.4363-.216-.6272-.016-.2088.214-.1465.467.0036.708.607.972 1.6482 1.408 2.7095 1.409z" fill="#77c9ff" fill-rule="evenodd"/><path d="m19.5378 125.851c-.1259-.135-.3382-.144-.4744-.017-.1362.125-.1447.338-.0184.474 2.9882 3.228 3.3609 6.401 1.8126 9.425-1.0187 1.99-2.9581 3.855-4.0701 4.44-.3646.191-.1303.745.2612.617 2.1343-.701 9.1831-.225 10.9231.81.1595.095.3656.043.4606-.116s.0425-.366-.1169-.461c-1.5653-.931-6.6873-1.429-9.7709-1.167l-.1792.017.039-.034c1.0407-.895 2.2014-2.218 2.959-3.624l.0927-.176c1.6742-3.271 1.2656-6.749-1.9183-10.188z" fill="#2950ac"/><path clip-rule="evenodd" d="m37.9681 101.101c-.0636-.106-.2016-.141-.3073-.077l-2.24 1.344c-.1062.063-.1407.201-.0771.307s.2012.141.3073.077l2.24-1.344c.1062-.063.1407-.201.0771-.307z" fill="#172e63" fill-rule="evenodd"/><path clip-rule="evenodd" d="m35.315 103.866c-.0211.122.0605.238.1828.259l1.792.31c.1218.021.2374-.06.2589-.182.0211-.122-.0609-.238-.1828-.259l-1.792-.311c-.1218-.021-.2379.061-.2589.183z" fill="#172e63" fill-rule="evenodd"/><path clip-rule="evenodd" d="m14.7182 102.481c-.0439.115.0148.245.1304.289l2.688 1.017c.1156.044.245-.015.2885-.13.0439-.116-.0144-.245-.1299-.289l-2.688-1.017c-.1156-.044-.2451.014-.289.13z" fill="#172e63" fill-rule="evenodd"/><path clip-rule="evenodd" d="m17.8175 105.598c-.0542-.111-.1881-.157-.2997-.104l-1.792.871c-.1111.055-.1577.188-.1035.3.0542.111.1882.158.2993.104l1.792-.871c.1116-.055.1577-.189.1039-.3z" fill="#172e63" fill-rule="evenodd"/><path clip-rule="evenodd" d="m33.9599 105.879c-1.2083.165-1.9237-.166-2.1661-1.005-.2822-.974.3665-2.014 1.5107-2.422.8946-.318 1.7843.031 2.2471.885.6053 1.117-.1631 2.346-1.5917 2.542z" fill="#7aa2ff" fill-rule="evenodd"/><path clip-rule="evenodd" d="m21.8638 108.119c-1.2069.164-1.9237-.166-2.1661-1.006-.2822-.974.3665-2.013 1.5107-2.421.8946-.318 1.7844.031 2.2472.885.6052 1.118-.1631 2.346-1.5918 2.542z" fill="#7aa2ff" fill-rule="evenodd"/><path clip-rule="evenodd" d="m130.103 130.036-1.336-1.496-2.762-3.09-6.138 5.154 3.184 2.735 1.487 1.277 4.333 3.721 4.94-4.149z" fill="#42a1e0" fill-rule="evenodd"/><path clip-rule="evenodd" d="m125.128 135.949s-14.04-10.217-18.397-13.944c-2.651-2.267-5.121-4.755-7.5889-7.217-1.061-1.058-4.948-6.224-6.491-5.808-1.194.32-4.874 8.15-9.418 12.698-3.567 3.569-6.862 7.402-10.556 10.839-2.406 2.239-5.016 4.257-7.916 5.807-15.092 8.067-22.425.774-27.023-4.593s15.511-21.241 15.511-21.241 37.528-18.1222 39.18-18.4332c2.125-.402 5.295 1.367 8.8579 4.246 10.708 8.6532 30.597 31.4892 30.597 31.4892z" fill="#3262d4" fill-rule="evenodd"/><path clip-rule="evenodd" d="m149.977 142.955-24.397-.569c-.174-.333-.262-.804-.289-1.363-.105-2.067.629-5.345 1-7.414.046-.242.085-.467.115-.672.053-.345.088-.633.093-.846.04-1.695 1.533-1.369 1.533-1.369 2.412 2.479 5.292-1.086 6.897.142 0 0 .065.05.212.17.134.111.338.284.622.533.407.358.979.876 1.753 1.605 1.896 1.788 5.163 3.014 7.94 4.253.355.158.683.315.987.47.232.119.45.237.655.355 2.263 1.291 2.965 2.49 3.111 3.354.139.83-.232 1.351-.232 1.351z" fill="#1d397b" fill-rule="evenodd"/><path clip-rule="evenodd" d="m149.978 142.955-24.397-.569c-.174-.334-.261-.804-.289-1.363l24.918.581c.139.829-.232 1.351-.232 1.351z" fill="#7ea4ff" fill-rule="evenodd"/><path clip-rule="evenodd" d="m128.07 142.444-.725-.018c.743-.809 1.449-2.061 1.403-3.876-.062-2.413-1.47-4.071-2.455-4.941.045-.242.083-.468.114-.672 1.064.854 2.847 2.708 2.922 5.599.044 1.732-.554 3.011-1.259 3.908z" fill="#7ea4ff" fill-rule="evenodd"/><path clip-rule="evenodd" d="m134.839 133.662-3.887-1.437-3.007 7.432 4.095.923 1.912.432 5.571 1.255 2.42-5.981-5.222-1.93z" fill="#42a1e0" fill-rule="evenodd"/><g mask="url(#a)"><path clip-rule="evenodd" d="m157.362 125.348-9.153 22.622c-.374.045-.845-.039-1.377-.211-1.971-.633-4.778-2.477-6.582-3.557-.211-.126-.408-.243-.588-.343-.305-.173-.562-.307-.759-.387-1.571-.636-.74-1.917-.74-1.917 3.172-1.381.855-5.335 2.571-6.401 0 0 .07-.044.234-.139.152-.087.385-.217.719-.394.478-.254 1.165-.606 2.12-1.073 2.343-1.141 4.645-3.764 6.785-5.926.272-.275.536-.526.789-.756.192-.174.38-.336.562-.487 2.008-1.661 3.378-1.894 4.238-1.724.825.162 1.181.693 1.181.693z" fill="#1d397b" fill-rule="evenodd"/></g><path clip-rule="evenodd" d="m157.361 125.348-9.153 22.622c-.374.045-.845-.039-1.377-.211l9.349-23.104c.824.162 1.181.693 1.181.693z" fill="#7ea4ff" fill-rule="evenodd"/><path clip-rule="evenodd" d="m149.142 145.663-.272.672c-.495-.981-1.416-2.084-3.13-2.682-2.28-.796-4.329-.064-5.491.55-.21-.127-.408-.243-.588-.344 1.174-.694 3.54-1.707 6.27-.756 1.636.572 2.62 1.582 3.211 2.56z" fill="#7ea4ff" fill-rule="evenodd"/><path clip-rule="evenodd" d="m96.0366 122.562c.194.045.387.09.583.135-.085-.025-.287-.072-.583-.135z" fill="#3971f4" fill-rule="evenodd"/><path clip-rule="evenodd" d="m80.0928 119.446c7.423 1.421 13.947 2.686 15.944 3.116-6.433-1.49-12.201-2.672-15.944-3.116z" fill="#3971f4" fill-rule="evenodd"/><path clip-rule="evenodd" d="m87.3547 135.055c.152.031.309.063.476.098-.067-.219-.103-.339-.103-.339s-.13.09-.373.241z" fill="#3971f4" fill-rule="evenodd"/><path clip-rule="evenodd" d="m96.0363 122.562c-1.997-.43-8.521-1.695-15.944-3.116-12.581-2.41-27.73-5.269-27.73-5.269h-11.8998s-11.5399 27.537 6.2979 27.812c10.1906 0 10.4104.077 21.3155-2.111 10.905-2.187 13.797-5.394 19.7544-4.725 3.475.707 9.939 2.011 15.2187 3 2.759.518 5.196.949 6.706 1.164 5.676.808 23.576 2.397 23.576 2.397l2.398-8.822s-21.78-6.154-39.1097-10.195c-.196-.045-.389-.09-.583-.135z" fill="#3568e1" fill-rule="evenodd"/><path clip-rule="evenodd" d="m61.7468 23.6529c-.415-2.791-1.693-5.575-4.006-7.202-.414-.292-.924-.5531-1.411-.411-1.475.431-.204 3.051-1.311 4.116-1.939-1.025-3.878-2.05-5.817-3.074-1.352-.715-3.175-1.3751-4.262-.3-1.083 1.072-.444 2.888.253 4.24-1.694.197-3.388.396-5.082.593-1.883.22-3.815.454-5.496 1.328-1.682.873-3.086 2.539-3.085 4.43 0 1.89 1.854 3.728 3.692 3.264-2.553 1.305-4.929 2.954-7.042 4.89-1.681 1.54-3.3 3.548-3.093 5.815s3.358 4.029 4.87 2.324c-2.814 2.347-4.838 5.619-5.68 9.179-.399 1.686-.488 3.618.57 4.993 1.437 1.867 4.439 1.814 6.414.525 1.976-1.288 3.171-3.448 4.288-5.523 1.516 1.715 2.607 3.771 4.124 5.485 1.517 1.715 3.675 3.12 5.955 2.876 1.58-.17 2.99-1.4 3.436-2.912.499-1.692-.002-1.423 1.724-1.666 1.568-.222 2.9-.88 4.264-1.661.524-.3 1.054-.606 1.483-1.031 2.065-2.05 1.118-4.871 1.115-7.4-.01-8.041 5.302-14.767 4.097-22.878z" fill="#0f1d3e" fill-rule="evenodd"/><path clip-rule="evenodd" d="m48.8378 28.9166c-.299.074-.61.168-.829.385-.461.455-.329 1.217-.164 1.843-.606-.247-1.212-.494-1.817-.74-1.621-.66-3.552-1.299-5.026-.357-.649.414-1.122 1.251-.813 1.956.41.933 5.941-.024 6.946-.19-.585.439-5.549 1.535-6.227 1.806-.678.272-1.364.75-1.502 1.468-.163.855.564 1.678 1.395 1.94.214.068.449.108.662.038.245-.079.422-.286.586-.484.618-.746 4.109-3.599 4.727-4.345-.908 2.252-3.521 4.692-4.146 6.663-.471 1.487.655 4.94 2.113 5.491s.842-1.221 2.286-1.806c1.085-.439 2.109-1.026 3.036-1.74.744-.574 1.431-1.232 2.252-1.687 1.59-.882 3.541-.928 5.126-1.818 1.385-.777 2.705-2.33 3.342-3.786.703-1.608-.964-2.459-2.215-3.186-2.901-1.687-6.464-2.267-9.732-1.451z" fill="#7aa2ff" fill-rule="evenodd"/><path clip-rule="evenodd" d="m47.5119 48.8023s-3.083-2.446-2.743-9.023c.342-6.579 5.344-9.374 8.021-9.656 2.678-.281 8.161-.064 11.293 4.739 0 0 3.461.649 4.31 5.796.849 5.148-5.004 6.8-5.004 6.8s-.846 8.471-5.062 8.558c-4.215.087-10.815-7.214-10.815-7.214z" fill="#0f1d3e" fill-rule="evenodd"/><path d="m60.1266 35.2116.1939.0779-.0531.1192c-.0241.0509-.0549.1126-.0926.1843-.1249.2374-.284.5015-.4806.7855-.5603.8098-1.3082 1.6189-2.2687 2.3735-1.5051 1.1824-3.3887 2.1173-5.6919 2.7152l-.4662.1151-.0477-.2035c2.4869-.5825 4.4952-1.5487 6.0767-2.7912.9435-.7413 1.6772-1.535 2.226-2.328.1916-.2769.3464-.5338.4674-.7639l.0879-.1746z" fill="#3568e0"/><path d="m56.0193 36.024.1529.1425-.1182.1211c-.1187.1173-.2875.2744-.5041.4607-.5044.4338-1.0887.8674-1.7463 1.272-1.05.6462-2.1821 1.1542-3.3848 1.4747l-.4543.1113-.0456-.204c1.3486-.3015 2.6126-.8445 3.7752-1.56.6477-.3986 1.2232-.8256 1.7195-1.2525l.2317-.2043c.0696-.063.1314-.1206.1853-.1722z" fill="#3568e0"/><path d="m57.583 42.5402.1833-1.0511.3944.0637c.2843.0428.6098.0864.9692.1301.3314.0403.679.0793 1.0321.1164l1.2428.1208-.0923 1.063-.7228-.0678c-.3608-.0355-.7216-.0733-1.0721-.1128l-.5166-.0604c-.4631-.0564-.8734-.1127-1.2187-.1685z" fill="#0f1d3e"/><path clip-rule="evenodd" d="m57.8897 59.8614-.202 7.669c-.066 2.693-1.76 4.093-4.41 4.008-2.263-.073-4.35-1.31-4.558-3.564l.898-12.053z" fill="#42a1e0" fill-rule="evenodd"/><path clip-rule="evenodd" d="m57.7642 63.6016c-5.367.0054-8.774-7-8.774-7l8.935 2.0068z" fill="#060c1a" fill-opacity=".18" fill-rule="evenodd"/><path clip-rule="evenodd" d="m54.001 59.609c4.42.719 8.628-2.181 9.336-5.771l1.621-8.48c.888-4.499-1.385-8.801-5.853-9.837-4.574-1.059-10.511 1.513-11.571 6.086l-1.229 6.835c-.95 5.286 2.464 9.954 7.696 11.167z" fill="#42a1e0" fill-rule="evenodd"/><path clip-rule="evenodd" d="m42.151 48.9449c-.435 1.875.733 3.747 2.608 4.182 1.875.434 3.747-.734 4.182-2.609s-.733-3.747-2.608-4.181c-1.875-.435-3.747.733-4.182 2.608z" fill="#42a1e0" fill-rule="evenodd"/><path clip-rule="evenodd" d="m46.499 51.0162s.57-2.462-1.873-2.62z" fill="#060c1a" fill-opacity=".18" fill-rule="evenodd"/><path clip-rule="evenodd" d="m61.7481 41.2934c.045 1.298.31 2.587.781 3.797-1.214-.197-2.428-.396-3.642-.594-.843-.137-1.756-.312-2.319-.954-.903-1.029-.448-2.679-1.03-3.918-1.185 1.488-1.824 3.4-1.773 5.302-1.341.267-2.724-.02-4.06-.307-1.093-.234-2.345-.595-2.777-1.625-.267-.639-.134-1.369.036-2.04.697-2.748 2.145-5.552 4.729-6.717 1.968-.888 4.268-.668 6.341-.063 2.743.8 5.479 2.456 6.467 5.137.252.682.38 1.403.506 2.12.187 1.061 1.586 5.299-.592 3.883-.955-.623-2.871-2.745-2.667-4.021z" fill="#0f1d3e" fill-rule="evenodd"/><path clip-rule="evenodd" d="m57.505 51.0644c.071.146.147.289.217.436.022.045.043.092.064.139.006.013.045.105.014.032.009.021.017.041.026.062.037.095.072.19.096.289.006.021.011.043.016.064.002.01.015.088.006.033-.007-.055.001.016.001.026.001.018-.002.036 0 .054.002.016.021-.077.001-.017-.02.063.02-.035.011-.016-.031.053.069-.066.004-.004-.024.022-.046.046-.07.067-.015.013-.014.012.005-.003-.015.011-.03.022-.045.031-.027.018-.055.035-.084.049-.009.005-.093.045-.044.024-.03.012-.061.024-.093.034-.13.045-.265.073-.399.097-.15.029-.249.218-.204.359.052.16.198.232.358.203.326-.061.649-.156.907-.374.102-.087.188-.191.218-.324.028-.123.016-.243-.006-.366-.076-.421-.312-.808-.497-1.188-.067-.138-.273-.186-.398-.104-.141.09-.176.251-.104.397z" fill="#060c1a" fill-opacity=".18" fill-rule="evenodd"/><path clip-rule="evenodd" d="m54.9246 48.7206s.256 1.13-.58.854c-.837-.276-3.746-1.159-3.746-1.159s1.481-2.378 4.326.305z" fill="#d4f8ff" fill-rule="evenodd"/><path clip-rule="evenodd" d="m55.2311 48.4042c-.012-.03-.021-.062-.035-.093-.775-1.685-3.083-1.747-4.497-.915-.111.066-.239.134-.364.101-.087-.024-.155-.092-.218-.158-.213-.225-.494-.695-.862-.587-.191.056-.219.129-.251.267-.054.234.447.53.582.655.275.253.539.503.863.706.045.027.092.054.143.062.087.012.17-.033.24-.085.387-.286.612-.623 1.096-.792.253-.089.61-.149.858-.018-.087.442-.496.94-.718 1.341l2.533.785s.981-.474.63-1.269z" fill="#0f1d3e" fill-rule="evenodd"/><path clip-rule="evenodd" d="m62.6476 50.4491-4.067-.4s1.566-2.088 3.141-1.462c1.575.625.926 1.862.926 1.862z" fill="#d4f8ff" fill-rule="evenodd"/><g mask="url(#b)"><path clip-rule="evenodd" d="m64.2508 48.6483c-.169-.09-.328-.031-.469.076-.234.178-.531.525-.808.311-.256-.199-.392-.461-.705-.622-.554-.286-1.226-.388-1.844-.34-.873.066-1.803.468-2.185 1.305-.074.164-.092.363-.001.518.091.154.309.235.461.141.067-.041.113-.108.156-.173.446-.657 1.417-1.457 2.274-1.085-.129.486-.545.992-.78 1.443l2.297.227s.399-.257.435-.667c.049-.027.098-.05.149-.061.244-.293.659-.281.931-.523.089-.087.178-.174.267-.262-.003-.131-.015-.201-.178-.288z" fill="#0f1d3e" fill-rule="evenodd"/></g><g clip-rule="evenodd" fill-rule="evenodd"><path d="m54.541 53.331c.156.103.34.324.441.404.435.344.927.627 1.467.77.401.106.821.131 1.232.077.2-.026.399-.071.591-.136.146-.048.336-.138.49-.142.074-.002.152.024.201.08.056.062.103.135.137.211.005.155-.07.278-.159.396-.223.108-.486.118-.73.151-.273.034-.546.062-.821.082-.182.013-.365.023-.547.014-.513-.026-1.061-.193-1.522-.42-.212-.103-.41-.262-.6-.403-.099-.074-.197-.15-.292-.23-.07-.058-.246-.166-.277-.25-.027-.07-.052-.14-.079-.209-.011-.031.102-.233.121-.268.041-.074.103-.172.198-.181.043-.005.094.018.149.054z" fill="#0f1d3e"/><path d="m53.7097 46.162c.744-.1.736-1.2-.007-1.312-.646-.096-1.47-.095-1.956.385-.891.878 1.143 1.018 1.94.93.007-.001.015-.001.023-.003z" fill="#0f1d3e"/><path d="m61.236 47.1083c-.582-.237-.343-1.128.282-1.062.545.058 1.212.233 1.506.724.536.9-1.142.584-1.769.346-.006-.003-.013-.005-.019-.008z" fill="#0f1d3e"/><path d="m53.2872 52.0898c-.26.364-.669.617-1.107.722-.506.12-1.043.055-1.532-.12-.32-.116-.63-.284-.853-.54-.386-.442-.412-1.256-.283-1.805.077-.329.268-.644.562-.811.432-.245.902-.263 1.376-.176.419.078.843.167 1.217.371.745.408 1.143 1.405.729 2.183-.032.062-.069.12-.109.176z" fill="#588aff" fill-opacity=".5"/><path d="m50.1913 51.4374c-.051 0-.103-.016-.147-.048-.112-.082-.136-.238-.055-.349l.657-.9c.082-.111.239-.135.349-.055.112.082.136.239.055.35l-.657.899c-.049.068-.125.103-.202.103z" fill="#bbe4ff"/><path d="m52.0949 52.1884h-.014c-.138-.008-.243-.126-.236-.264l.063-1.112c.007-.138.119-.224.263-.236.138.008.243.126.236.263l-.062 1.113c-.008.133-.118.236-.25.236z" fill="#bbe4ff"/><path d="m50.9713 51.9071c-.039 0-.078-.009-.114-.027-.123-.064-.172-.214-.108-.337l.58-1.13c.062-.123.214-.171.336-.109.123.064.172.214.108.337l-.58 1.13c-.044.086-.132.136-.222.136z" fill="#bbe4ff"/><path d="m59.9899 53.2167c.218.306.561.518.928.604.423.101.873.047 1.283-.1.268-.097.528-.236.715-.451.323-.371.345-1.053.237-1.513-.065-.276-.225-.539-.471-.679-.362-.206-.756-.221-1.153-.148-.351.065-.706.14-1.019.31-.625.342-.958 1.177-.611 1.83.027.051.057.1.091.147z" fill="#588aff" fill-opacity=".5"/><path d="m62.5834 52.7108c-.077 0-.153-.035-.202-.103l-.55-.753c-.082-.112-.058-.268.054-.35.11-.08.267-.059.349.055l.551.754c.081.111.057.267-.055.349-.044.032-.096.048-.147.048z" fill="#bbe4ff"/><path d="m60.9889 53.3398c-.132 0-.242-.103-.25-.236l-.052-.932c-.008-.138.098-.256.236-.264.156.014.256.099.263.237l.053.931c.007.138-.098.256-.236.264z" fill="#bbe4ff"/><path d="m61.9298 53.1044c-.09 0-.178-.05-.222-.136l-.486-.946c-.063-.123-.015-.273.108-.337.124-.061.274-.014.336.108l.486.947c.064.123.015.273-.108.337-.036.018-.075.027-.114.027z" fill="#bbe4ff"/><path d="m58.5601 71.9056c1.883-2.565 5.735-2.751 8.214-.397l3.3451 3.179c5.797 6.972 12.2089 13.639 18.6498 19.791 10.959-9.509 18.367-17.019 19.679-18.354.801-.936 1.868-2.284 1.951-2.918.135-1.025.903-3.611 1.593-3.895s.984 2.322.984 2.322 4.606-4.634 4.858-4.191-2.727 4.003-2.727 4.003 3.965-3.886 4.193-3.414c.228.471-3.51 4.873-3.51 4.873s4.152-3.541 4.065-3.093-2.338 3.377-2.338 3.377c1.166-.84 2.152-1.296 1.977-.788-.696 2.027-5.625 5.902-6.702 6.731l.006.005c-4.212 8.264-9.828 15.905-15.977 22.7574-1.429 1.597-2.8889 3.151-4.3659 4.659-2.471 2.524-6.4869 2.679-9.1539.364-1.576-1.369-3.088-2.726-4.529-4.055-9.444-8.7184-15.856-16.2804-17.764-18.7274-4.677-6.013-2.4481-12.229-2.4481-12.229z" fill="#42a1e0"/><path d="m122.234 70.4456c-.621 1.475-4.203 4.34-5.05 5.388-.847 1.042-4.62 3.319-4.62 3.319l-3.206-2.726s-.512-.816.581-3.73c1.087-2.914 2.978-7.815 3.852-7.777.845.04.481 3.711.377 4.489l-.012.073c-.006.045.017.043.074.006.629-.449 5.119-6.119 5.909-5.686.238.135.561.606.882 1.243.022.043.044.087.065.136.231.473.461 1.027.66 1.599.021.049.037.098.051.151.193.572.355 1.161.455 1.7.008.058.017.112.026.165.113.679.119 1.273-.044 1.65z" fill="#42a1e0"/><path d="m114.034 73.8216c-.001-.001-.003-.001-.004-.001-.038-.009-.063-.047-.055-.085.375-1.709.116-4.219.113-4.244-.004-.039.024-.074.063-.078.038-.005.074.024.078.063.003.026.265 2.558-.114 4.289-.008.037-.044.061-.081.056z" fill="#42a1e0"/><path d="m121.086 65.1809-4.823 4.848c-.019.013-.038.022-.06.018-.017-.002-.027-.01-.042-.023-.025-.028-.025-.068.003-.098l4.857-4.882c.022.043.044.087.065.137z" fill="#42a1e0"/><path d="m121.797 66.9309-4.291 4.091c-.013.014-.038.022-.06.019-.011-.002-.027-.01-.038-.017-.029-.033-.028-.073-.001-.104l4.339-4.14c.021.048.036.097.051.151z" fill="#42a1e0"/><path d="m122.279 68.7952-3.766 3.603c-.019.014-.043.022-.06.019s-.033-.011-.042-.023c-.025-.028-.029-.075.003-.098l3.839-3.666c.008.059.017.112.026.165z" fill="#42a1e0"/><path d="m44.4912 109.927 24.921-3.877c-.488-3.319-2.019-9.723-1.385-13.214.688-3.787 3.578-4.741 3.886-10.546.308-5.807-3.774-9.634-5.566-11.134-1.283-1.074-7.885-6.349-9.061-7.725l-8.035-1.558c-.867 1.549-3.565 5.72-7.05 6.146-1.584.193-3.078.933-4.113 2.202-1.447 1.771-2.514 4.957-.996 10.611 2.915 10.861 6.952 22.128 7.399 29.095z" fill="#42a1e0"/><path d="m69.103 103.059c-.27-1.278-.482-2.571-.679-3.8561-.295-1.932-.66-4.191-.063-6.102 1.156-3.701 5.32-8.558 3.931-14.186-1.387-5.627-15.005-15.484-15.005-15.484l7.682 8.7s-9.946 1.774-12.258 3.007l-7.17-8.326-2.467.848 4.934 8.789s.077 16.035-8.943 11.256c0 0 .884 8.652 1.871 14.0311-.969.923-1.934 2.052-3.213 3.327-4.237 4.222-5.008 14.036-9.723 17.704.623 3.879 4.338 6.752 8.226 7.319 3.886.569 7.832-.778 11.232-2.745.98-.566 1.989-1.204 3.12-1.247 1.546-.06 2.885.988 4.327 1.55 4.246 1.65 8.859-1.01 12.548-3.685 3.688-2.674 7.959-5.639 12.395-4.602-.656-.153-1.671-1.447-2.172-1.909-.766-.706-1.515-1.433-2.231-2.19-1.362-1.44-2.625-2.992-3.634-4.703-1.37-2.324-2.157-4.882-2.708-7.496z" fill="#1d397b"/></g><g mask="url(#c)"><path clip-rule="evenodd" d="m73.3866 101.271c-.755-.313-1.496-.75-2.12-1.2852-1.511-1.297-2.004-2.845-1.385-4.359.124-.3.239-.579.347-.837 1.267-3.058 1.4-3.376.314-7.737-.343-1.372-.181-2.542.476-3.471.443-.628 1.053-1.068 1.661-1.374-.012.139-.023.28-.036.423-.499.279-.981.653-1.336 1.156-.595.843-.737 1.914-.421 3.181 1.114 4.472.949 4.868-.332 7.958-.106.259-.222.535-.344.836-.751 1.835.484 3.265 1.289 3.954.536.4612 1.173.8502 1.829 1.1422v.002c.019.137.037.273.058.411z" fill="#7aa2ff" fill-rule="evenodd"/></g><g mask="url(#d)"><path clip-rule="evenodd" d="m44.4423 104.059c-.778 1.2-2.194 2.056-4.041 2.056-.753 0-1.579-.142-2.464-.462-.014-.137-.028-.269-.04-.394 2.947 1.129 5.215.201 6.247-1.393.993-1.536.704-3.343-.7-4.3962-1.905-1.429-1.402-2.598-.869-3.833.525-1.216 1.068-2.473-.234-4.36-.758-1.101-1.699-1.76-2.795-1.957-.666-.12-1.318-.055-1.892.083.007-.124.014-.248.019-.372.587-.131 1.248-.184 1.934-.06 1.193.213 2.212.921 3.025 2.104 1.413 2.05.778 3.519.27 4.702-.518 1.2-.927 2.148.755 3.41 1.74 1.3052 1.712 3.4382.785 4.8722z" fill="#7aa2ff" fill-rule="evenodd"/></g><g mask="url(#e)"><path clip-rule="evenodd" d="m60.8875 102.131c-.508 1.539-2.1 2.563-3.786 2.435-2.437-.187-5.956-1.944-7.624-4.561-1.14-1.789-1.325-3.74-.55-5.802.543-1.443.939-2.792 1.189-4.044.315-1.58.395-2.999.238-4.246-.14-1.11.431-2.115 1.456-2.561.485-.211.991-.262 1.467-.167.533.106 1.027.396 1.408.852l.126.156c2.014 2.481 1.599 4.603 1.199 6.656-.423 2.162-.823 4.206 2.107 6.051 2.331 1.469 3.367 3.423 2.77 5.231zm-2.582-5.532c-2.723-1.714-2.365-3.554-1.948-5.681.397-2.033.846-4.338-1.27-6.949-.044-.054-.087-.106-.131-.158-.821-.988-2.111-1.294-3.289-.784-1.171.509-1.825 1.66-1.665 2.929.271 2.148-.215 4.956-1.407 8.123-.805 2.141-.603 4.256.582 6.115 1.536 2.411 4.585 4.116 7.016 4.6.304.062.6.103.881.124 1.846.141 3.591-.984 4.15-2.677.652-1.971-.44-4.08-2.919-5.642z" fill="#7aa2ff" fill-rule="evenodd"/></g><g mask="url(#f)"><path clip-rule="evenodd" d="m68.5589 80.3605c-2.219-.45-4.106-2.06-4.312-3.199-.061-.331.037-.571.297-.734 2.346-1.461 3.031-3.334 2.62-7.16-.098-.915.115-1.677.631-2.263.025-.027.048-.054.073-.081-.126-.035-.252-.07-.378-.107-.556.659-.785 1.495-.679 2.49.394 3.661-.25 5.447-2.454 6.82-.381.237-.545.628-.46 1.098.225 1.254 2.168 2.992 4.591 3.484.351.07.777.127 1.25.127.934 0 2.055-.216 3.165-.957.018-.162.035-.318.053-.473-1.65 1.226-3.364 1.164-4.397.955z" fill="#7aa2ff" fill-rule="evenodd"/></g><g mask="url(#g)"><path clip-rule="evenodd" d="m60.4374 82.4006c-.351.59-1.218.851-2.015.604-1.06-.324-1.643-1.375-1.56-2.807.112-1.89-1.062-2.586-2.005-3.148-.85-.505-1.465-.87-1.203-1.87.216-.822.815-1.297 1.778-1.407.12-.014.242-.021.365-.021 1.04 0 2.07.5 2.754 1.356 1.381 1.724 3.114 5.23 1.886 7.293zm-1.609-7.515c-.853-1.067-2.136-1.613-3.437-1.465-1.106.127-1.826.705-2.079 1.67-.33 1.257.532 1.77 1.365 2.264.948.566 1.929 1.149 1.832 2.821-.095 1.608.581 2.792 1.81 3.169.241.074.485.111.723.111.714 0 1.37-.32 1.7-.874 1.32-2.216-.473-5.897-1.914-7.696z" fill="#7aa2ff" fill-rule="evenodd"/></g><g mask="url(#h)"><path clip-rule="evenodd" d="m67.4359 95.8294c-1.057.965-2.217 1.339-2.825.909-.545-.381-.543-1.35.003-2.658.826-1.977-.509-2.896-1.685-3.706-.947-.652-1.84-1.268-1.658-2.36.132-.793.69-1.236 1.706-1.359.148-.017.295-.026.442-.026.814 0 1.598.265 2.25.732.652.466 1.169 1.131 1.451 1.928 1.175 3.332 1.287 5.654.316 6.54zm.019-6.658c-.668-1.895-2.57-3.099-4.519-2.866-1.161.138-1.858.709-2.016 1.652-.217 1.312.812 2.021 1.808 2.708 1.17.806 2.274 1.566 1.56 3.276-.617 1.477-.572 2.603.117 3.088.231.161.51.239.823.239.719 0 1.61-.415 2.447-1.176.558-.509.771-1.331.771-2.29 0-1.427-.473-3.162-.991-4.631z" fill="#7aa2ff" fill-rule="evenodd"/></g><g mask="url(#i)"><path clip-rule="evenodd" d="m77.407 112.611c-1.684-.189-2.09.82-2.554 1.974-.415 1.025-.883 2.189-2.37 2.885-1.815.851-3.7639-.03-4.7529-1.339-.738-.979-1.1311-2.474-.0251-3.744.517-.595.751-1.125.714-1.622-.055-.709-.658-1.218-1.242-1.712-.757-.639-1.473-1.244-1.236-2.267.197-.844.775-1.443 1.629-1.69.301-.087.619-.127.947-.127 1.331 0 2.8351.688 4.0601 1.902 1.484 1.475 3.0769 1.902 4.2199 1.984-.017-.12-.037-.241-.055-.358-1.068-.09-2.538-.507-3.917-1.878-1.614-1.602-3.714-2.334-5.352-1.863-.984.284-1.65.975-1.876 1.95-.287 1.235.584 1.97 1.351 2.619.553.466 1.074.907 1.117 1.469.03.395-.174.84-.628 1.36-1.042 1.195-1.036 2.802.011 4.189.778 1.034 2.109 1.819 3.538 1.819.544 0 1.1-.114 1.648-.37 1.613-.757 2.13-2.042 2.547-3.076.466-1.156.787-1.953 2.288-1.742-.02-.122-.041-.243-.062-.363z" fill="#7aa2ff" fill-rule="evenodd"/></g><g mask="url(#j)"><path clip-rule="evenodd" d="m56.0298 109.65c-.957.486-2.593.108-3.979-.923-.588-.436-1.126-.593-1.651-.593-.629 0-1.241.222-1.904.464-1.147.421-2.45.896-4.383.466-2.001-.443-2.673-2.096-2.446-3.442.198-1.2 1.167-2.406 2.824-2.222 1.317.149 2.231.595 3.116 1.024 1.358.664 2.641 1.288 5.042.63.98-.269 1.818-.178 2.489.269 1.302.872 1.605 2.822 1.63 2.99.005.627-.251 1.088-.738 1.337zm1.188-1.38c-.011-.093-.301-2.3-1.826-3.32-.785-.528-1.749-.638-2.863-.333-2.236.613-3.388.053-4.723-.6-.878-.425-1.869-.909-3.263-1.065-1.951-.22-3.089 1.192-3.325 2.595-.258 1.55.507 3.452 2.797 3.96 2.062.457 3.49-.065 4.638-.484 1.181-.432 2.036-.744 3.127.068 1.068.794 2.254 1.225 3.254 1.225.449 0 .856-.087 1.202-.263.645-.331.996-.955.984-1.758 0-.009-.002-.016-.002-.025z" fill="#7aa2ff" fill-rule="evenodd"/></g><g mask="url(#k)"><path clip-rule="evenodd" d="m32.6133 121.228c.734-.73 1.648-1.638 1.107-3.462-.265-.896-.792-1.553-1.566-1.951-1.129-.583-2.547-.498-3.541-.324.014.117.028.235.044.354.402-.069.877-.126 1.372-.126.666 0 1.365.103 1.962.411.685.353 1.152.938 1.39 1.738.48 1.619-.283 2.376-1.018 3.108-.801.798-1.558 1.549-.059 3.151 1.478 1.58 1.454 3.678.577 4.792-.456.579-1.081.86-1.815.837.03.094.062.183.092.268.055.026.108.053.163.078.735-.045 1.37-.369 1.838-.963.971-1.233 1.012-3.535-.596-5.255-1.263-1.35-.741-1.87.05-2.656z" fill="#7aa2ff" fill-rule="evenodd"/></g><g mask="url(#l)"><path clip-rule="evenodd" d="m72.1849 122.433c-.892-.563-2.037-.622-3.405-.174-1.783.587-2.474 1.553-3.029 2.329-.806 1.125-1.292 1.806-4.617.51-3.582-1.394-6.113-.605-6.949.718-.626.991-.399 2.237.595 3.423.161.005.321.01.483.012-1.064-1.136-1.355-2.329-.777-3.245.47-.745 1.551-1.294 3.109-1.294.964 0 2.112.211 3.412.718 3.413 1.329 4.104.661 5.033-.637.551-.772 1.179-1.646 2.852-2.197 1.26-.413 2.304-.369 3.102.135.955.602 1.327 1.725 1.453 2.26.108-.061.214-.123.321-.187-.158-.616-.573-1.731-1.583-2.371z" fill="#7aa2ff" fill-rule="evenodd"/></g><g mask="url(#m)"><path clip-rule="evenodd" d="m42.7372 127.244c-.213.909-1.454 1.9-2.728 1.815-2.564-.175-3.576-2.109-3.975-3.703-.594-2.375-.378-3.689.746-4.53.17-.079 1.804-.81 2.972-.331.479.196.821.578 1.018 1.136.372 1.056.187 1.77.04 2.344-.216.839-.28 1.381 1.081 1.944.69.283.982.742.846 1.325zm-.711-1.653c-1.145-.474-1.06-.803-.872-1.527.151-.587.358-1.392-.051-2.551-.231-.657-.64-1.11-1.216-1.346-1.372-.564-3.199.31-3.275.348-.011.003-.02.01-.029.015-1.574 1.165-1.359 3.049-.893 4.913.603 2.412 2.129 3.822 4.296 3.969.061.005.123.007.183.007 1.4 0 2.674-1.071 2.914-2.095.175-.752-.21-1.385-1.057-1.733z" fill="#7aa2ff" fill-rule="evenodd"/></g><g mask="url(#n)"><path clip-rule="evenodd" d="m76.0943 123.177c-.845-.642-1.304-1.425-1.363-2.332-.087-1.357.73-2.737 1.391-3.619-.031-.154-.064-.309-.093-.465-.717.894-1.755 2.485-1.651 4.106.062 1 .557 1.862 1.465 2.56.097-.072.194-.146.288-.222-.012-.008-.025-.019-.037-.028z" fill="#7aa2ff" fill-rule="evenodd"/></g><g mask="url(#o)"><path clip-rule="evenodd" d="m64.2305 115.397c1.335.92 1.869 2.736 1.272 4.317-.864 2.287-3.54 5.169-6.521 6.035-2.037.59-3.961.22-5.722-1.103-1.233-.927-2.415-1.687-3.546-2.279-1.427-.746-2.767-1.222-4.008-1.422-1.105-.179-1.909-1.009-2.049-2.118-.065-.525.028-1.024.253-1.454.252-.483.669-.874 1.214-1.112.061-.025.122-.052.184-.077 2.948-1.234 4.868-.24 6.725.722 1.956 1.012 3.805 1.971 6.399-.322 2.066-1.824 4.233-2.268 5.799-1.187zm-6.035.922c-2.41 2.131-4.075 1.27-5.999.272-1.84-.952-3.925-2.031-7.026-.735-.064.027-.126.055-.189.082-1.178.509-1.835 1.662-1.677 2.935.159 1.267 1.08 2.218 2.344 2.421 2.136.344 4.695 1.601 7.399 3.635 1.828 1.374 3.914 1.776 6.032 1.161 2.745-.797 5.238-3.243 6.387-5.44.144-.274.266-.547.367-.811.653-1.731.064-3.721-1.402-4.735-1.709-1.18-4.039-.725-6.236 1.215z" fill="#7aa2ff" fill-rule="evenodd"/></g><g mask="url(#p)"><path clip-rule="evenodd" d="m45.1668 112.227c.468.503.474 1.407.014 2.104-.61.925-1.783 1.19-3.133.707-1.782-.638-2.78.292-3.585 1.039-.724.673-1.247 1.162-2.132.629-.729-.439-1.016-1.148-.851-2.102.02-.12.048-.239.083-.356.292-.999 1.061-1.846 2.075-2.262 2.043-.84 5.895-1.518 7.529.241zm-7.664-.569c-1.264.518-2.149 1.596-2.373 2.885-.189 1.098.163 1.951 1.019 2.466 1.114.67 1.847-.013 2.556-.674.809-.751 1.645-1.529 3.223-.964 1.516.544 2.843.226 3.55-.846.138-.211.242-.435.309-.663.201-.686.079-1.405-.361-1.877-1.755-1.89-5.791-1.204-7.923-.327z" fill="#7aa2ff" fill-rule="evenodd"/></g><g mask="url(#q)"><path clip-rule="evenodd" d="m49.6667 65.262c-.111.049-.225.095-.343.142.644.751.948 1.791.8 2.824-.31 2.187-1.677 5.851-4.02 6.371-.67.148-1.454-.305-1.821-1.055-.49-.995-.125-2.138.976-3.059 1.452-1.213 1.156-2.545.919-3.617-.04-.182-.078-.355-.107-.519-.114.02-.231.043-.35.062.031.176.071.357.111.535.239 1.078.486 2.193-.8 3.267-1.235 1.031-1.635 2.336-1.068 3.489.113.225.253.429.416.602.49.521 1.17.779 1.802.641 2.518-.558 3.969-4.385 4.293-6.668.159-1.113-.139-2.195-.808-3.015z" fill="#7aa2ff" fill-rule="evenodd"/></g><path clip-rule="evenodd" d="m40.1251 68.6301s2.773 6.731 6.065 6.913l1.7 1.826c6.488 8.863 13.977 17.348 21.361 24.9409 7.973-.105 15.944-.461 23.8939-1.077 2.466-.192 5.587-1.198 7.961-1.083 2.062.098 3.749 1.468 3.261 3.581-.551 2.378-4.485 3.17-6.326 3.835-6.018 2.173-12.2479 3.737-18.5479 4.836-4.127.73-8.243 1.246-12.274 1.6-2.148.189-4.279-.541-5.856-2.012-3.653-3.407-6.963-6.77-9.874-9.91-7.175-7.7569-11.915-14.1419-13.432-16.3639-3.126-4.587-3.502-14.35 2.068-17.086z" fill="#42a1e0" fill-rule="evenodd"/><path clip-rule="evenodd" d="m113.451 68.2669c.224-.121.492-.232.724-.128.201.091.304.316.355.531.23.975-.268 1.962-.793 2.814-.486.788-1.021 1.564-1.745 2.14-.433.344-1.093.598-1.506.231-.345-.308-.292-.852-.211-1.307.346-1.943 1.4-3.316 3.176-4.281z" fill="#42a1e0" fill-rule="evenodd"/><path clip-rule="evenodd" d="m113.957 104.06c-1.218.786-5.364 1.103-6.534 1.453-1.166.348-5.154.126-5.154.126l-1.009-3.679s.034-.872 2.341-2.4963c2.303-1.628 6.222-4.331 6.857-3.855.613.461-1.536 3.024-2.011 3.554l-.046.048c-.027.03-.009.04.053.042.699-.015 6.959-1.966 7.328-1.239.11.223.112.74.027 1.381-.006.044-.012.088-.021.136-.069.4723-.18 1.0053-.323 1.5343-.009.048-.023.092-.039.141-.147.525-.327 1.048-.528 1.503-.024.048-.045.093-.065.137-.262.567-.562 1.014-.876 1.214z" fill="#42a1e0" fill-rule="evenodd"/><path clip-rule="evenodd" d="m106.093 102.398-.003-.003c-.024-.025-.023-.066.003-.091 1.153-1.089 2.242-3.1003 2.252-3.1213.017-.031.057-.043.087-.025.031.015.043.055.027.087-.011.02-1.109 2.0503-2.278 3.1533-.025.023-.063.023-.088 0z" fill="#42a1e0" fill-rule="evenodd"/><path clip-rule="evenodd" d="m115.787 99.5305-6.088 1.1655c-.021.001-.04-.002-.055-.017-.011-.01-.015-.021-.02-.039-.004-.033.017-.062.053-.071l6.131-1.1745c-.006.044-.012.088-.021.136z" fill="#42a1e0" fill-rule="evenodd"/><path clip-rule="evenodd" d="m115.425 101.205-5.302.87c-.018.005-.04-.002-.055-.016-.008-.007-.016-.021-.02-.033-.005-.039.016-.069.052-.078l5.364-.884c-.009.048-.022.092-.039.141z" fill="#42a1e0" fill-rule="evenodd"/><path clip-rule="evenodd" d="m114.833 102.846-4.66.774c-.022 0-.044-.005-.055-.016-.012-.011-.019-.026-.02-.04-.005-.032.016-.07.052-.071l4.747-.784c-.023.048-.044.093-.064.137z" fill="#42a1e0" fill-rule="evenodd"/><path clip-rule="evenodd" d="m116.036 78.8216 6.537-2.676-5.127-15.052-8.307 3.4z" fill="#5f8eff" fill-rule="evenodd"/><path clip-rule="evenodd" d="m113.985 75.6731 7.845-3.21-3.064-8.804-8.768 3.589z" fill="#3161d1" fill-rule="evenodd"/><path clip-rule="evenodd" d="m114.659 70.3694c.336.82 1.273 1.213 2.093.877.821-.336 1.214-1.273.878-2.093s-1.273-1.214-2.094-.878c-.82.336-1.212 1.274-.877 2.094z" fill="#d4f8ff" fill-rule="evenodd"/><path clip-rule="evenodd" d="m108.738 65.0734 9.402-3.849-.436-1.066-9.403 3.848z" fill="#0f1d3e" fill-rule="evenodd"/><path clip-rule="evenodd" d="m109.135 63.8665 7.874-3.223-.673-1.643-6.23 2.55c-.908.371-1.343 1.408-.971 2.316z" fill="#0f1d3e" fill-rule="evenodd"/><path clip-rule="evenodd" d="m184.603 131.81c.311.326.324.694.457 1.014.081.191.054.392-.13.508-.216.134-.455.061-.634-.077-.428-.332-.408-.891.027-1.26.069-.061.154-.104.28-.185z" fill="#131f54" fill-rule="evenodd"/><g mask="url(#r)"><path clip-rule="evenodd" d="m157.474 103.108c.417-.022.834-.053 1.251-.061.332-.006.446-.193.485-.48.041-.303-.149-.37-.389-.439-.433-.123-.859-.271-1.285-.413-.233-.077-.424-.224-.398-.478.032-.318.321-.388.577-.405.184-.012.379.061.564.115.185.053.36.15.548.192.382.088.612.006.612-.466 0-.539.031-1.0889.137-1.6165.386-1.9311.894-3.8269 1.587-5.6799.269-.7212.666-1.3778.914-2.1041.282-.8205.698-1.5695 1.317-2.1964.362-.0711.725-.1129 1.091-.0317 1.024 1.2664 1.63 2.7476 2.175 4.248.282.7762.22.7853 1.022.7833.423-.001.736-.0923.944-.5064.226-.4574.513-.8866.796-1.3158.564-.8584 1.106-1.7339 1.727-2.5505.742-.9749 1.712-.8866 2.326.1624.521.8897.875 1.8474 1.188 2.8233.698 2.1702 1.13 4.3984 1.506 6.6387.052.3122.097.6228.35.8296.349-.139.645-.2587.943-.3712.306-.1165.668-.2759.827.1473.15.3999-.223.5499-.506.6969-.259.135-.522.267-.797.36-.516.174-.362.516-.254.857.108.336.278.629.69.452.464-.201.965-.114 1.432-.249.264-.076.549-.126.617.232.065.337-.224.418-.477.493-.372.113-.751.207-1.117.334-.232.081-.398.227-.251.511.477.92.882 1.892 1.446 2.769l.005-.002c.008.011.016.022.025.034.013.019.027.042.044.067-.003 0-.005.001-.008.002.061.092.115.188.18.276-.101.025-.201.049-.302.073.739 1.56.697 3.46.857 5.222.246 2.691 1.089 5.328 2.454 7.67.913 1.568 2.189 3.141 3.899 3.901.52.23 1.613.228 1.925.738.021.036.025.074.039.11 2.728 4.434 3.923 13.699-.82 17.145-5.241 3.807-11.202 6.232-17.579 6.913-1.537.165-3.075.287-4.615.405-1.225.095-2.453.074-3.671-.088-1.341-.177-1.711-.501-1.956-1.629-.532-2.44 2.897-3.164 4.569-3.596 2.339-.602 4.743-.901 7.123-1.287 3.555-.577 7.169-1.527 10.507-2.874.603-.243 1.323-.304 1.817-.938-.441-.111-.808-.021-1.176.027-.963.122-1.918.334-2.893.314-2.203-.045-4.39.229-6.589.284-2.033.05-4.057.114-6.08-.235-.752-.129-1.517-.363-2.302-.248-.87.13-1.725.046-2.591-.068-.59-.076-1.043-.305-1.406-.748-.032-.236-.063-.472-.094-.707 1.123-1.432 2.069-1.953 2.172-3.902.409-7.753 1.074-15.529.798-23.272-.031-.902-.406-1.451-1.298-1.775-1.295-.473-2.322-1.271-2.586-2.73-.057-.313-.094-.629-.146-.943-.055-.323-.214-.5-.584-.5-.451 0-.906-.039-1.353-.103-.217-.031-.459-.147-.435-.424.021-.254.215-.379.472-.393z" fill="#4397ff" fill-rule="evenodd"/></g><path clip-rule="evenodd" d="m162.274 98.6188c1.076.2007 1.864.4584 2.483 1.0773.219.2194.383.4799.178.7609-.197.271-.518.231-.789.105-.437-.202-.837-.519-1.292-.6354-.55-.1413-1.15-.2235-1.692.1134-.163.102-.326.191-.531.215-.242.028-.449.016-.586-.214-.158-.2668-.095-.4998.137-.6753.687-.5174 1.428-.875 2.092-.7469z" fill="#315ed0" fill-rule="evenodd"/><path clip-rule="evenodd" d="m171.266 99.1055c.368.1205.989.2058 1.378.7484.116.1601.23.3201.12.5171-.109.194-.314.222-.507.2-.187-.022-.392-.056-.548-.151-.835-.505-1.631-.5071-2.406.113-.049.039-.109.068-.167.095-.331.153-.638.135-.844-.193-.195-.313-.006-.5362.237-.7288.744-.5886 1.599-.751 2.737-.6007z" fill="#315ed0" fill-rule="evenodd"/><path clip-rule="evenodd" d="m161.602 135.669c.018-.05.035-.099.054-.148.035.036.072.073.109.11l-.076.047z" fill="#2df" fill-rule="evenodd"/><path clip-rule="evenodd" d="m171.465 105.617c-1.059-.028-1.621-.422-1.703-1.194-.094-.896.618-1.718 1.658-1.915.813-.152 1.522.284 1.789 1.1.35 1.068-.493 2.039-1.744 2.009z" fill="#3ebaff" fill-rule="evenodd"/><path clip-rule="evenodd" d="m168.598 104.483c-.34.691-1.236 1.004-1.962.769-.822-.266-1.293-1.09-1.322-1.911l.733.198c-.331.716-.787 1.494-1.654 1.628-.332.05-.705-.009-.991-.193-.278-.177-.437-.458-.565-.75-.084-.194-.057-.415.141-.531.166-.098.455-.054.539.139.158.363.36.673.821.556.559-.143.814-.775 1.03-1.243.172-.371.721-.157.733.196.018.472.269.992.744 1.162.41.147.884-.026 1.074-.413.221-.449.9-.055.679.393z" fill="#315ed0" fill-rule="evenodd"/><path clip-rule="evenodd" d="m165.708 102.938c.317.025.64-.041.92-.19.269-.143.518-.444.399-.722-.082-.191-.303-.279-.506-.329-.414-.101-.847-.12-1.268-.055-.307.047-.664.203-.694.509-.023.248.187.454.394.596.177.121.37.229.583.261.212.034.447-.021.589-.18" fill="#315ed0" fill-rule="evenodd"/><path clip-rule="evenodd" d="m175.46 110.581c.254-1.013.81-1.923 1.602-2.614.646-.567 1.42-.962 2.24-1.217 1.327 2.293 7.108 13.778 8.724 17.315-1.711 1.681-3.994 2.664-6.42 2.628-1.214-.016-2.413-.275-3.542-.709-1.162-.446-2.279-1.058-3.148-1.952-.778-.801-1.311-1.802-1.504-2.899-.102-.58-.104-1.175-.034-1.759.075-.629.273-1.192.597-1.74.305-.519.67-1.005.937-1.547.276-.554.394-1.135.425-1.749.063-1.255-.188-2.522.123-3.757z" fill="#3b75fd" fill-rule="evenodd"/><path clip-rule="evenodd" d="m173.214 91.9771c-.125-.3061-.275-.6349-.572-.7812-.321-.1584-.724-.0454-.995.1846-.27.2315-.434.5583-.576.8811-.27.6138-.491 1.2477-.657 1.8958-.328 1.2694.695 1.8348 1.729 2.3583.662.3349 1.375.5679 2.106.7101.092.0182.201.0313.272-.0308.076-.0655.071-.1825.059-.2809-.208-1.691-.723-3.3609-1.366-4.937z" fill="#1d337b" fill-rule="evenodd"/><path clip-rule="evenodd" d="m163.201 91.1298c.191-.2688.413-.5558.737-.6319.348-.0812.714.1185.925.4035.21.2854.294.6405.358.9875.122.6581.19 1.3249.204 1.9936.006.29-.001.5916-.125.8564-.29.6218-1.018.8836-1.626 1.0642-.845.2506-1.785.4952-2.58.1195.523-1.7571 1.026-3.2712 2.107-4.7928z" fill="#1d337b" fill-rule="evenodd"/><path clip-rule="evenodd" d="m164.912 136.844c.755-.308 1.487-.661 2.193-1.065.315-.18.614-.386.928-.567.179-.103.3-.126.293-.27-.004-.097-.159-.284-.206-.375-.6-1.148-.979-2.394-1.143-3.676-.328-2.555.229-5.179 1.605-7.371.259-.41.919-.033.659.38-1.567 2.494-2.001 5.575-1.206 8.404.193.685.454 1.349.792 1.978.206.383.515.78.162 1.176-.435.486-1.249.838-1.815 1.148-.667.363-1.356.676-2.06.963-.453.183-.65-.543-.202-.725z" fill="#3b75fd" fill-rule="evenodd"/><g mask="url(#s)"><path clip-rule="evenodd" d="m164.488 141.815c1.34-.087 2.739-.254 3.887.622.325.248.6.573.72.96.285.919-.366 1.88-1.148 2.452.64.686.795 1.732.522 2.627-.274.892-.925 1.639-1.696 2.179-2.052 1.437-4.196 2.126-6.727 1.686-2.599-.451-5.199-1.882-6.231-4.279-.261-.606-.416-1.27-.334-1.923.113-.927.681-1.733 1.277-2.459 1.62-1.975 3.947-2.389 6.391-2.132 1.158.122 2.183.341 3.324.268.005-.001.01-.001.015-.001z" fill="#3b75fd" fill-rule="evenodd"/></g><path clip-rule="evenodd" d="m162.274 98.6188c1.076.2007 1.864.4584 2.483 1.0772.219.2194.383.48.178.761-.197.271-.518.231-.789.104-.437-.201-.837-.518-1.292-.6345-.55-.1412-1.15-.2234-1.692.1135-.163.102-.326.191-.531.215-.242.028-.449.015-.586-.214-.158-.2668-.095-.4998.137-.6753.687-.5175 1.428-.875 2.092-.7469z" fill="#2748a4" fill-rule="evenodd"/><path clip-rule="evenodd" d="m171.266 99.1055c.368.1205.989.2057 1.378.7484.116.1601.23.3201.12.5171-.109.194-.314.222-.507.2-.187-.022-.392-.056-.548-.151-.835-.5051-1.631-.5071-2.406.113-.049.039-.109.068-.167.095-.331.153-.638.135-.844-.193-.195-.313-.006-.5362.237-.7289.744-.5885 1.599-.7509 2.737-.6006z" fill="#2748a4" fill-rule="evenodd"/><path clip-rule="evenodd" d="m161.602 135.669c.018-.05.035-.099.054-.148.035.036.072.073.109.11l-.076.047z" fill="#2df" fill-rule="evenodd"/><path clip-rule="evenodd" d="m171.466 105.617c-1.059-.028-1.622-.422-1.703-1.194-.094-.896.618-1.718 1.658-1.915.813-.152 1.522.284 1.788 1.1.351 1.068-.493 2.039-1.743 2.009z" fill="#3b75fd" fill-rule="evenodd"/><path clip-rule="evenodd" d="m160.577 105.123c-.892-.022-1.366-.355-1.435-1.006-.079-.756.52-1.448 1.397-1.613.685-.128 1.283.239 1.507.927.294.9-.415 1.718-1.469 1.692z" fill="#3b75fd" fill-rule="evenodd"/><path clip-rule="evenodd" d="m168.599 104.483c-.341.691-1.237 1.004-1.963.769-.822-.266-1.292-1.09-1.322-1.911l.734.198c-.331.716-.787 1.494-1.654 1.628-.332.05-.705-.009-.992-.193-.277-.177-.437-.458-.565-.75-.084-.194-.056-.415.142-.531.165-.098.455-.054.538.139.159.363.361.673.821.556.559-.143.815-.775 1.03-1.243.172-.371.721-.157.734.196.017.472.269.992.743 1.162.411.147.884-.026 1.074-.413.221-.449.9-.055.68.393z" fill="#2748a4" fill-rule="evenodd"/><path clip-rule="evenodd" d="m165.708 102.938c.317.025.64-.041.92-.19.269-.143.518-.444.399-.722-.082-.191-.303-.279-.506-.329-.414-.101-.847-.12-1.268-.055-.307.047-.664.203-.694.509-.023.248.187.454.394.596.177.121.37.229.583.261.212.034.447-.021.589-.181" fill="#2748a4" fill-rule="evenodd"/><path clip-rule="evenodd" d="m173.214 91.9771c-.125-.3061-.275-.6349-.572-.7812-.321-.1584-.724-.0454-.995.1846-.27.2315-.434.5583-.576.8811-.27.6137-.491 1.2477-.657 1.8958-.328 1.2694.695 1.8348 1.729 2.3583.662.3349 1.375.5679 2.106.7101.092.0181.201.0313.272-.0308.076-.0655.071-.1825.059-.2809-.208-1.691-.723-3.3609-1.366-4.937z" fill="#3b75fd" fill-rule="evenodd"/><path clip-rule="evenodd" d="m163.201 91.1298c.191-.2688.413-.5558.737-.6319.348-.0812.714.1185.925.4035.21.2854.294.6405.358.9875.122.6581.19 1.3249.204 1.9936.006.29-.001.5916-.125.8564-.29.6218-1.018.8836-1.626 1.0642-.845.2506-1.785.4952-2.58.1195.523-1.7571 1.026-3.2712 2.107-4.7928z" fill="#3b75fd" fill-rule="evenodd"/></svg>