<svg width="992" height="546" viewBox="0 0 992 546" fill="none" xmlns="http://www.w3.org/2000/svg">
<path fill-rule="evenodd" clip-rule="evenodd" d="M74 8.75759V519.242C74 522.979 77.0275 526 80.7677 526H919.232C922.973 526 926 522.977 926 519.242V8.75759C926 5.02074 922.972 2 919.232 2H80.7677C77.0268 2 74 5.02302 74 8.75759Z" stroke="#C4C4C4"/>
<path d="M0.5 534V520C0.5 518.838 0.845322 517.978 1.41841 517.408C1.99199 516.838 2.85309 516.5 4 516.5H988C989.146 516.5 990.007 516.837 990.581 517.406C991.154 517.975 991.5 518.835 991.5 520V534C991.5 537.031 991.495 539.194 991.021 540.795C990.789 541.578 990.449 542.207 989.952 542.724C989.453 543.243 988.773 543.676 987.824 544.032C985.907 544.751 982.98 545.125 978.479 545.313C973.992 545.5 968.005 545.5 960 545.5H32C23.9954 545.5 18.0079 545.5 13.5208 545.313C9.02005 545.125 6.09288 544.751 4.17556 544.032C3.22705 543.676 2.54671 543.243 2.04819 542.724C1.55139 542.207 1.21139 541.578 0.979399 540.795C0.504897 539.194 0.5 537.031 0.5 534Z" fill="#FCFDFC" stroke="#D2D2D2"/>
<path d="M569.492 516.5C569.396 519.638 568.393 521.994 566.928 523.776C565.379 525.66 563.29 526.93 561.135 527.785C556.816 529.498 552.343 529.5 551.785 529.5H551.59H551.396H551.201H551.007H550.812H550.618H550.423H550.228H550.034H549.839H549.644H549.45H549.255H549.06H548.865H548.671H548.476H548.281H548.086H547.891H547.696H547.501H547.306H547.111H546.916H546.721H546.526H546.331H546.136H545.94H545.745H545.55H545.354H545.159H544.964H544.768H544.573H544.377H544.182H543.986H543.791H543.595H543.399H543.204H543.008H542.812H542.616H542.42H542.224H542.029H541.833H541.637H541.44H541.244H541.048H540.852H540.656H540.459H540.263H540.067H539.87H539.674H539.477H539.281H539.084H538.888H538.691H538.494H538.297H538.1H537.904H537.707H537.51H537.313H537.116H536.918H536.721H536.524H536.327H536.129H535.932H535.734H535.537H535.339H535.142H534.944H534.746H534.548H534.351H534.153H533.955H533.757H533.559H533.36H533.162H532.964H532.766H532.567H532.369H532.17H531.972H531.773H531.574H531.376H531.177H530.978H530.779H530.58H530.381H530.182H529.983H529.783H529.584H529.385H529.185H528.986H528.786H528.586H528.387H528.187H527.987H527.787H527.587H527.387H527.187H526.986H526.786H526.586H526.385H526.185H525.984H525.783H525.582H525.382H525.181H524.98H524.779H524.577H524.376H524.175H523.974H523.772H523.571H523.369H523.167H522.965H522.764H522.562H522.36H522.157H521.955H521.753H521.551H521.348H521.146H520.943H520.74H520.537H520.335H520.132H519.929H519.725H519.522H519.319H519.116H518.912H518.708H518.505H518.301H518.097H517.893H517.689H517.485H517.281H517.077H516.872H516.668H516.463H516.258H516.054H515.849H515.644H515.439H515.233H515.028H514.823H514.617H514.412H514.206H514H513.794H513.589H513.382H513.176H512.97H512.764H512.557H512.351H512.144H511.937H511.73H511.523H511.316H511.109H510.902H510.694H510.487H510.279H510.071H509.864H509.656H509.448H509.239H509.031H508.823H508.614H508.406H508.197H507.988H507.779H507.57H507.361H507.152H506.942H506.733H506.523H506.314H506.104H505.894H505.684H505.473H505.263H505.053H504.842H504.631H504.421H504.21H503.999H503.788H503.576H503.365H503.153H502.942H502.73H502.518H502.306H502.094H501.882H501.669H501.457H501.244H501.032H500.819H500.606H500.393H500.179H499.966H499.753H499.539H499.325H499.111H498.897H498.683H498.469H498.254H498.04H497.825H497.61H497.395H497.18H496.965H496.75H496.534H496.319H496.103H495.887H495.671H495.455H495.239H495.022H494.806H494.589H494.372H494.155H493.938H493.721H493.503H493.286H493.068H492.85H492.632H492.414H492.196H491.978H491.759H491.54H491.322H491.103H490.884H490.664H490.445H490.225H490.006H489.786H489.566H489.346H489.125H488.905H488.684H488.464H488.243H488.022H487.8H487.579H487.358H487.136H486.914H486.692H486.47H486.248H486.025H485.803H485.58H485.357H485.134H484.911H484.688H484.464H484.241H484.017H483.793H483.569H483.344H483.12H482.895H482.67H482.445H482.22H481.995H481.77H481.544H481.318H481.092H480.866H480.64H480.414H480.187H479.96H479.733H479.506H479.279H479.052H478.824H478.596H478.368H478.14H477.912H477.684H477.455H477.226H476.997H476.768H476.539H476.31H476.08H475.85H475.62H475.39H475.16H474.929H474.698H474.468H474.237H474.005H473.774H473.542H473.311H473.079H472.847H472.614H472.382H472.149H471.917H471.684H471.45H471.217H470.983H470.75H470.516H470.282H470.047H469.813H469.578H469.344H469.109H468.873H468.638H468.402H468.167H467.931H467.695H467.458H467.222H466.985H466.748H466.511H466.274H466.036H465.799H465.561H465.323H465.085H464.846H464.607H464.369H464.13H463.89H463.651H463.411H463.172H462.932H462.691H462.451H462.211H461.97H461.729H461.488H461.246H461.005H460.763H460.521H460.279H460.036H459.794H459.551H459.308H459.065H458.821H458.578H458.334H458.09H457.846H457.601H457.357H457.112H456.867H456.622H456.376H456.131H455.885H455.639H455.392H455.146H454.899H454.652H454.405H454.158H453.91H453.662H453.414H453.166H452.918H452.669H452.42H452.171H451.922H451.672H451.423H451.173H450.923H450.672H450.422H450.171H449.92H449.669H449.417H449.166H448.914H448.662H448.409H448.157H447.904H447.651H447.398H447.144H446.891H446.637H446.383H446.128H445.874H445.619H445.364H445.109H444.853H444.598H444.342H444.085H443.829H443.572H443.316H443.059H442.801H442.544H442.286H442.028H441.77H441.511H441.253H440.994H440.734H440.475H440.215C439.657 529.5 435.184 529.498 430.865 527.785C428.71 526.93 426.621 525.66 425.072 523.776C423.607 521.994 422.604 519.638 422.508 516.5H569.492Z" fill="#FCFDFC" stroke="#D2D2D2"/>
<path d="M896 60V44C896 42.8954 895.132 42 894.027 42C854.33 42 228.714 42 220 42C211.824 42 211.901 42 211.983 30.0028C211.999 27.7937 210.209 26 208 26H140C137.791 26 136.001 27.7937 136.017 30.0028C136.099 42 136.176 42 128 42C120.607 42 103.769 42 97.9901 42C96.8855 42 96 42.8954 96 44V60" stroke="#F0F0F0"/>
</svg>
