<svg viewBox="0 0 80 80" xmlns="http://www.w3.org/2000/svg"><g clip-rule="evenodd" fill="#8d9190" fill-rule="evenodd"><path d="m55 6v9.5194c0 .449-.2113.935-.6907 1.1723-.6712.3323-2.0322.8083-4.3093.8083-2.4677 0-3.7801-.4842-4.4018-.8297-.4339-.2412-.5982-.6935-.5982-1.0845v-9.5858c0-1.65685 2.2386-2 5-2s5 .34315 5 2zm-1 0c0 .16205-.0443.24554-.1164.32115-.0964.10105-.2915.23078-.656.34877-.7432.24056-1.8555.33008-3.2276.33008s-2.4844-.08952-3.2276-.33008c-.3645-.11799-.5596-.24772-.656-.34877-.0721-.07561-.1164-.1591-.1164-.32115s.0443-.24554.1164-.32115c.0964-.10105.2915-.23078.656-.34877.7432-.24056 1.8555-.33008 3.2276-.33008s2.4844.08952 3.2276.33008c.3645.11799.5596.24772.656.34877.0721.07561.1164.1591.1164.32115zm0 1.43717c-.9122.44245-2.3644.56283-4 .56283s-3.0878-.12038-4-.56283v8.14863c0 .1394.0542.1939.084.2104.4416.2455 1.5783.7038 3.916.7038 2.1331 0 3.3409-.4447 3.8656-.7045.0651-.0322.1344-.1176.1344-.2761z" opacity=".25"/><path d="m75 25v9.5194c0 .449-.2113.935-.6907 1.1723-.6712.3323-2.0322.8083-4.3093.8083-2.4677 0-3.7801-.4842-4.4018-.8297-.4339-.2412-.5982-.6935-.5982-1.0845v-9.5858c0-1.6569 2.2386-2 5-2s5 .3431 5 2zm-1 0c0 .1621-.0443.2455-.1164.3212-.0964.101-.2915.2307-.656.3487-.7432.2406-1.8555.3301-3.2276.3301s-2.4844-.0895-3.2276-.3301c-.3645-.118-.5596-.2477-.656-.3487-.0721-.0757-.1164-.1591-.1164-.3212s.0443-.2455.1164-.3212c.0964-.101.2915-.2307.656-.3487.7432-.2406 1.8555-.3301 3.2276-.3301s2.4844.0895 3.2276.3301c.3645.118.5596.2477.656.3487.0721.0757.1164.1591.1164.3212zm0 1.4372c-.9122.4424-2.3644.5628-4 .5628s-3.0878-.1204-4-.5628v8.1486c0 .1394.0542.1939.084.2104.4416.2455 1.5783.7038 3.916.7038 2.1331 0 3.3409-.4447 3.8656-.7045.0651-.0322.1344-.1176.1344-.2761z" opacity=".25"/><path d="m15 65v9.5194c0 .449-.2113.935-.6907 1.1723-.6712.3323-2.0322.8083-4.3093.8083-2.46771 0-3.78015-.4842-4.40183-.8297-.43388-.2412-.59817-.6935-.59817-1.0845v-9.5858c0-1.6569 2.23858-2 5-2 2.7614 0 5 .3431 5 2zm-1 0c0 .1621-.0443.2455-.1164.3212-.0964.101-.2915.2307-.656.3487-.7432.2406-1.8555.3301-3.2276.3301-1.37206 0-2.48441-.0895-3.22756-.3301-.3645-.118-.55961-.2477-.65603-.3487-.07214-.0757-.11641-.1591-.11641-.3212s.04427-.2455.11641-.3212c.09642-.101.29153-.2307.65603-.3487.74315-.2406 1.8555-.3301 3.22756-.3301 1.3721 0 2.4844.0895 3.2276.3301.3645.118.5596.2477.656.3487.0721.0757.1164.1591.1164.3212zm0 1.4372c-.9122.4424-2.3644.5628-4 .5628s-3.08777-.1204-4-.5628v8.1486c0 .1394.05424.1939.08398.2104.44162.2455 1.57828.7038 3.91602.7038 2.1331 0 3.3409-.4447 3.8656-.7045.0651-.0322.1344-.1176.1344-.2761z" opacity=".25"/><path d="m35 9v4.5194c0 .449-.2113.935-.6907 1.1723-.6712.3323-2.0322.8083-4.3093.8083-2.4677 0-3.7801-.4842-4.4018-.8297-.4339-.2412-.5982-.6935-.5982-1.0845v-4.5858c0-1.65685 2.2386-2 5-2s5 .34315 5 2zm-1 0c0 .16205-.0443.24554-.1164.32115-.0964.10105-.2915.23078-.656.34877-.7432.24056-1.8555.33008-3.2276.33008s-2.4844-.08952-3.2276-.33008c-.3645-.11799-.5596-.24772-.656-.34877-.0721-.07561-.1164-.1591-.1164-.32115s.0443-.24554.1164-.32115c.0964-.10105.2915-.23078.656-.34877.7432-.24056 1.8555-.33008 3.2276-.33008s2.4844.08952 3.2276.33008c.3645.11799.5596.24772.656.34877.0721.07561.1164.1591.1164.32115zm0 1.4372c-.9122.4424-2.3644.5628-4 .5628s-3.0878-.1204-4-.5628v3.1486c0 .1394.0542.1939.084.2104.4416.2455 1.5783.7038 3.916.7038 2.1331 0 3.3409-.4447 3.8656-.7045.0651-.0322.1344-.1176.1344-.2761z" opacity=".25"/><path d="m55 28v4.5194c0 .449-.2113.935-.6907 1.1723-.6712.3323-2.0322.8083-4.3093.8083-2.4677 0-3.7801-.4842-4.4018-.8297-.4339-.2412-.5982-.6935-.5982-1.0845v-4.5858c0-1.6569 2.2386-2 5-2s5 .3431 5 2zm-1 0c0 .1621-.0443.2455-.1164.3212-.0964.101-.2915.2307-.656.3487-.7432.2406-1.8555.3301-3.2276.3301s-2.4844-.0895-3.2276-.3301c-.3645-.118-.5596-.2477-.656-.3487-.0721-.0757-.1164-.1591-.1164-.3212s.0443-.2455.1164-.3212c.0964-.101.2915-.2307.656-.3487.7432-.2406 1.8555-.3301 3.2276-.3301s2.4844.0895 3.2276.3301c.3645.118.5596.2477.656.3487.0721.0757.1164.1591.1164.3212zm0 1.4372c-.9122.4424-2.3644.5628-4 .5628s-3.0878-.1204-4-.5628v3.1486c0 .1394.0542.1939.084.2104.4416.2455 1.5783.7038 3.916.7038 2.1331 0 3.3409-.4447 3.8656-.7045.0651-.0322.1344-.1176.1344-.2761z" opacity=".25"/><path d="m75 48v4.5194c0 .449-.2113.935-.6907 1.1723-.6712.3323-2.0322.8083-4.3093.8083-2.4677 0-3.7801-.4842-4.4018-.8297-.4339-.2412-.5982-.6935-.5982-1.0845v-4.5858c0-1.6569 2.2386-2 5-2s5 .3431 5 2zm-1 0c0 .1621-.0443.2455-.1164.3212-.0964.101-.2915.2307-.656.3487-.7432.2406-1.8555.3301-3.2276.3301s-2.4844-.0895-3.2276-.3301c-.3645-.118-.5596-.2477-.656-.3487-.0721-.0757-.1164-.1591-.1164-.3212s.0443-.2455.1164-.3212c.0964-.101.2915-.2307.656-.3487.7432-.2406 1.8555-.3301 3.2276-.3301s2.4844.0895 3.2276.3301c.3645.118.5596.2477.656.3487.0721.0757.1164.1591.1164.3212zm0 1.4372c-.9122.4424-2.3644.5628-4 .5628s-3.0878-.1204-4-.5628v3.1486c0 .1394.0542.1939.084.2104.4416.2455 1.5783.7038 3.916.7038 2.1331 0 3.3409-.4447 3.8656-.7045.0651-.0322.1344-.1176.1344-.2761z" opacity=".25"/><path d="m10.1956 5.86643c.3501-.75081 1.2426-1.07564 1.9934-.72553l.9063.42261c.7508.35011 1.0757 1.24258.7256 1.99339l-4.22622 9.0631c-.35011.7508-1.24258 1.0756-1.99339.7255l-.90631-.4226c-.75081-.3501-1.07564-1.2426-.72553-1.9934zm1.5708.18077c-.2503-.1167-.5478-.00842-.6645.24185l-4.22614 9.06305c-.11671.2503-.00843.5478.24184.6645l.90631.4226c.25027.1167.54776.0084.66446-.2418l4.22623-9.06311c.1167-.25027.0084-.54776-.2419-.66447z" opacity=".25"/><path d="m30.3671 24.8664c.3501-.7508 1.2426-1.0756 1.9934-.7255l.9063.4226c.7508.3501 1.0756 1.2426.7255 1.9934l-4.2262 9.0631c-.3501.7508-1.2426 1.0756-1.9934.7255l-.9063-.4226c-.7508-.3501-1.0756-1.2426-.7255-1.9934zm1.5707.1808c-.2502-.1167-.5477-.0084-.6644.2418l-4.2262 9.0631c-.1167.2503-.0084.5478.2418.6645l.9064.4226c.2502.1167.5477.0084.6644-.2418l4.2262-9.0631c.1167-.2503.0084-.5478-.2418-.6645z" opacity=".25"/><path d="m50.3671 44.8664c.3501-.7508 1.2426-1.0756 1.9934-.7255l.9063.4226c.7508.3501 1.0756 1.2426.7255 1.9934l-4.2262 9.0631c-.3501.7508-1.2426 1.0756-1.9934.7255l-.9063-.4226c-.7508-.3501-1.0756-1.2426-.7255-1.9934zm1.5707.1808c-.2502-.1167-.5477-.0084-.6644.2418l-4.2262 9.0631c-.1167.2503-.0084.5478.2418.6645l.9064.4226c.2502.1167.5477.0084.6644-.2418l4.2262-9.0631c.1167-.2503.0084-.5478-.2418-.6645z" opacity=".25"/><path d="m70.3671 64.8664c.3501-.7508 1.2426-1.0756 1.9934-.7255l.9063.4226c.7508.3501 1.0756 1.2426.7255 1.9934l-4.2262 9.0631c-.3501.7508-1.2426 1.0756-1.9934.7255l-.9063-.4226c-.7508-.3501-1.0756-1.2426-.7255-1.9934zm1.5707.1808c-.2502-.1167-.5477-.0084-.6644.2418l-4.2262 9.0631c-.1167.2503-.0084.5478.2418.6645l.9064.4226c.2502.1167.5477.0084.6644-.2418l4.2262-9.0631c.1167-.2503.0084-.5478-.2418-.6645z" opacity=".25"/><path d="m75 9v3.5194c0 .449-.2113.935-.6907 1.1723-.6712.3323-2.0322.8083-4.3093.8083-2.4677 0-3.7801-.4842-4.4018-.8297-.4339-.2412-.5982-.6935-.5982-1.0845v-3.5858c0-1.65685 2.2386-2 5-2s5 .34315 5 2zm-1 0c0 .16205-.0443.24554-.1164.32115-.0964.10105-.2915.23078-.656.34877-.7432.24056-1.8555.33008-3.2276.33008s-2.4844-.08952-3.2276-.33008c-.3645-.11799-.5596-.24772-.656-.34877-.0721-.07561-.1164-.1591-.1164-.32115s.0443-.24554.1164-.32115c.0964-.10105.2915-.23078.656-.34877.7432-.24056 1.8555-.33008 3.2276-.33008s2.4844.08952 3.2276.33008c.3645.11799.5596.24772.656.34877.0721.07561.1164.1591.1164.32115zm0 1.4372c-.9122.4424-2.3644.5628-4 .5628s-3.0878-.1204-4-.5628v2.1486c0 .1394.0542.1939.084.2104.4416.2455 1.5783.7038 3.916.7038 2.1331 0 3.3409-.4447 3.8656-.7045.0651-.0322.1344-.1176.1344-.2761z" opacity=".25"/><path d="m15 48v3.5194c0 .449-.2113.935-.6907 1.1723-.6712.3323-2.0322.8083-4.3093.8083-2.46771 0-3.78015-.4842-4.40183-.8297-.43388-.2412-.59817-.6935-.59817-1.0845v-3.5858c0-1.6569 2.23858-2 5-2 2.7614 0 5 .3431 5 2zm-1 0c0 .1621-.0443.2455-.1164.3212-.0964.101-.2915.2307-.656.3487-.7432.2406-1.8555.3301-3.2276.3301-1.37206 0-2.48441-.0895-3.22756-.3301-.3645-.118-.55961-.2477-.65603-.3487-.07214-.0757-.11641-.1591-.11641-.3212s.04427-.2455.11641-.3212c.09642-.101.29153-.2307.65603-.3487.74315-.2406 1.8555-.3301 3.22756-.3301 1.3721 0 2.4844.0895 3.2276.3301.3645.118.5596.2477.656.3487.0721.0757.1164.1591.1164.3212zm0 1.4372c-.9122.4424-2.3644.5628-4 .5628s-3.08777-.1204-4-.5628v2.1486c0 .1394.05424.1939.08398.2104.44162.2455 1.57828.7038 3.91602.7038 2.1331 0 3.3409-.4447 3.8656-.7045.0651-.0322.1344-.1176.1344-.2761z" opacity=".25"/><path d="m35 68v3.5194c0 .449-.2113.935-.6907 1.1723-.6712.3323-2.0322.8083-4.3093.8083-2.4677 0-3.7801-.4842-4.4018-.8297-.4339-.2412-.5982-.6935-.5982-1.0845v-3.5858c0-1.6569 2.2386-2 5-2s5 .3431 5 2zm-1 0c0 .1621-.0443.2455-.1164.3212-.0964.101-.2915.2307-.656.3487-.7432.2406-1.8555.3301-3.2276.3301s-2.4844-.0895-3.2276-.3301c-.3645-.118-.5596-.2477-.656-.3487-.0721-.0757-.1164-.1591-.1164-.3212s.0443-.2455.1164-.3212c.0964-.101.2915-.2307.656-.3487.7432-.2406 1.8555-.3301 3.2276-.3301s2.4844.0895 3.2276.3301c.3645.118.5596.2477.656.3487.0721.0757.1164.1591.1164.3212zm0 1.4372c-.9122.4424-2.3644.5628-4 .5628s-3.0878-.1204-4-.5628v2.1486c0 .1394.0542.1939.084.2104.4416.2455 1.5783.7038 3.916.7038 2.1331 0 3.3409-.4447 3.8656-.7045.0651-.0322.1344-.1176.1344-.2761z" opacity=".25"/><g opacity=".25"><path d="m16.161 26.4751-7.25049-3.3809c-.50054-.2334-1.09552-.0169-1.32893.4837l-4.22618 9.063c-.23341.5006-.01685 1.0956.48369 1.329l7.25051 3.3809c.5005.2334 1.0955.0169 1.3289-.4837l4.2262-9.0631c.2334-.5005.0168-1.0955-.4837-1.3289zm-6.82787-4.2872c-1.00108-.4668-2.19104-.0337-2.65786.9673l-4.22618 9.0631c-.46681 1.0011-.0337 2.1911.96738 2.6579l7.25043 3.3809c1.0011.4668 2.1911.0337 2.6579-.9674l4.2262-9.063c.4668-1.0011.0337-2.1911-.9674-2.6579z"/><path d="m13.0805 28.3488-3.62523-1.6905c-.50054-.2334-1.09552-.0168-1.32893.4837l-1.69047 3.6253c-.23341.5005-.01685 1.0955.48369 1.3289l3.62524 1.6904c.5005.2335 1.0955.0169 1.3289-.4836l1.6905-3.6253c.2334-.5005.0168-1.0955-.4837-1.3289zm-3.20261-2.5968c-1.00108-.4668-2.19104-.0337-2.65785.9674l-1.69048 3.6252c-.46681 1.0011-.0337 2.1911.96738 2.6579l3.62526 1.6905c1.0011.4668 2.191.0337 2.6578-.9674l1.6905-3.6253c.4668-1.001.0337-2.191-.9674-2.6578z"/></g><g opacity=".25"><path d="m36.161 46.4751-7.2505-3.3809c-.5005-.2334-1.0955-.0169-1.3289.4837l-4.2262 9.063c-.2334.5006-.0169 1.0956.4837 1.329l7.2505 3.3809c.5005.2334 1.0955.0169 1.3289-.4837l4.2262-9.0631c.2334-.5005.0168-1.0955-.4837-1.3289zm-6.8279-4.2872c-1.0011-.4668-2.191-.0337-2.6578.9673l-4.2262 9.0631c-.4668 1.0011-.0337 2.1911.9674 2.6579l7.2504 3.3809c1.0011.4668 2.1911.0337 2.6579-.9674l4.2262-9.063c.4668-1.0011.0337-2.1911-.9674-2.6579z"/><path d="m33.0805 48.3488-3.6252-1.6905c-.5006-.2334-1.0956-.0168-1.329.4837l-1.6904 3.6253c-.2334.5005-.0169 1.0955.4837 1.3289l3.6252 1.6904c.5005.2335 1.0955.0169 1.3289-.4836l1.6905-3.6253c.2334-.5005.0168-1.0955-.4837-1.3289zm-3.2026-2.5968c-1.0011-.4668-2.1911-.0337-2.6579.9674l-1.6904 3.6252c-.4668 1.0011-.0337 2.1911.9673 2.6579l3.6253 1.6905c1.0011.4668 2.191.0337 2.6578-.9674l1.6905-3.6253c.4668-1.001.0337-2.191-.9674-2.6578z"/></g><g opacity=".25"><path d="m56.5571 66.4751-7.2505-3.3809c-.5005-.2334-1.0955-.0169-1.3289.4837l-4.2262 9.063c-.2334.5006-.0168 1.0956.4837 1.329l7.2505 3.3809c.5005.2334 1.0955.0169 1.3289-.4837l4.2262-9.0631c.2334-.5005.0168-1.0955-.4837-1.3289zm-6.8279-4.2872c-1.001-.4668-2.191-.0337-2.6578.9673l-4.2262 9.0631c-.4668 1.0011-.0337 2.1911.9674 2.6579l7.2505 3.3809c1.001.4668 2.191.0337 2.6578-.9674l4.2262-9.063c.4668-1.0011.0337-2.1911-.9674-2.6579z"/><path d="m53.4766 68.3488-3.6252-1.6905c-.5006-.2334-1.0955-.0168-1.3289.4837l-1.6905 3.6253c-.2334.5005-.0169 1.0955.4837 1.3289l3.6252 1.6904c.5005.2335 1.0955.0169 1.3289-.4836l1.6905-3.6253c.2334-.5005.0169-1.0955-.4837-1.3289zm-3.2026-2.5968c-1.0011-.4668-2.191-.0337-2.6578.9674l-1.6905 3.6252c-.4668 1.0011-.0337 2.1911.9674 2.6579l3.6252 1.6905c1.0011.4668 2.191.0337 2.6578-.9674l1.6905-3.6253c.4668-1.001.0337-2.191-.9674-2.6578z"/></g></g></svg>