<svg fill="none" height="512" viewBox="0 0 512 512" width="512" xmlns="http://www.w3.org/2000/svg"><path d="m0 0h512v512h-512z" fill="#0a100d"/><path d="m139.68 345v-70.144l-64.512-109.056h34.816l45.056 77.568 45.056-77.568h34.816l-64.768 109.056v70.144zm280.902 0h-30.72v-95.232c0-7.851.341-15.019 1.024-21.504-2.048 6.144-4.779 13.483-8.192 22.016l-43.52 97.792-43.52-98.304c-3.072-6.827-5.888-13.995-8.448-21.504.683 6.485 1.024 13.653 1.024 21.504v95.232h-30.72v-179.2h30.976l46.08 105.216c1.877 4.779 3.499 9.216 4.864 13.312 1.365-4.096 2.987-8.533 4.864-13.312l46.336-105.216h29.952z" fill="#67d5b4"/></svg>