<svg viewBox="0 0 36 30" xmlns="http://www.w3.org/2000/svg"><path clip-rule="evenodd" d="m26 3h-16c-3.31371 0-6 2.68629-6 6v11.5884c0 1.3319 1.07969 2.4116 2.41155 2.4116h13.55465c1.7621 0 2.9854 1.1807 3.36 2.5897l1.2871-1.1441c1.0476-.9312 2.4005-1.4456 3.8022-1.4456 1.9797 0 3.5845-1.6048 3.5845-3.5845v-10.4155c0-3.31371-2.6863-6-6-6zm-3.5065 25.8656c.1908-.0776.3686-.1875.5251-.3266l2.9235-2.5986c.6815-.6058 1.5616-.9404 2.4734-.9404 3.0842 0 5.5845-2.5003 5.5845-5.5845v-10.4155c0-4.41828-3.5817-8-8-8h-16c-4.41828 0-8 3.58172-8 8v11.5884c0 2.4365 1.97512 4.4116 4.41155 4.4116h13.55465c1.1141 0 1.7206 1.1123 1.3847 2-.0003.0008-.0006.0016-.0009.0024-.0232.061-.0508.1209-.0831.1793-.0994.1802-.2426.3461-.4336.485-.5773.4199-.2803 1.3333.4336 1.3333h.5392c.1872 0 .3717-.0288.5475-.0841.0473-.0148.094-.0316.1399-.0503z" fill="#b6b9b8" fill-rule="evenodd"/><g stroke="#646867" stroke-width="2"><circle cx="16" cy="18" r="2" fill="none"/><circle cx="16" cy="8" r="2" fill="none"/><path d="m16 9.5v7"/></g><path d="m21 20c0 .5522.4477 1 1 1s1-.4478 1-1zm-4-9c0-.5523-.4477-1-1-1s-1 .4477-1 1zm4 5v.0191.0191.0189.019.0189.0188.0187.0187.0187.0186.0185.0185.0184.0184.0183.0182.0182.0181.0181.018.018.0179.0179.0177.0178.0177.0176.0176.0175.0175.0174.0173.0173.0172.0172.0172.017.017.017.0169.0169.0168.0167.0167.0166.0166.0166.0164.0165.0163.0163.0163.0162.0161.0161.0161.016.0159.0159.0158.0158.0157.0157.0156.0156.0155.0155.0154.0153.0153.0153.0152.0151.0151.015.015.015.0149.0148.0148.0147.0147.0146.0146.0145.0145.0144.0144.0143.0143.0142.0142.0141.0141.014.0139.014.0138.0139.0137.0137.0137.0136.0136.0135.0135.0134.0134.0133.0133.0132.0132.0131.0131.013.013.0129.0129.0128.0128.0127.0127.0127.0126.0125.0125.0124.0124.0124.0123.0123.0122.0121.0122.012.012.012.0119.0119.0119.0118.0117.0117.0116.0116.0116.0115.0115.0114.0113.0114.0113.0112.0112.0111.0111.0111.011.0109.0109.0109.0108.0108.0108.0106.0107.0106.0106.0105.0104.0105.0103.0104.0103.0102.0102.0102.0101.0101.01.01.0099.0099.0099.0098.0098.0097.0097.0096.0096.0096.0095.0094.0095.0094.0093.0093.0093.0092.0092.0091.0091.009.009.009.0089.0089.0088.0088.0088.0087.0087.0086.0086.0086.0085.0085.0084.0084.0084.0083.0082.0083.0082.0081.0081.0081.008.008.008.0079.0079.0078.0078.0078.0077.0077.0076.0076.0076.0075.0075.0074.0074.0074.0073.0073.0073.0072.0072.0071.0071.0071.007.007.007.0069.0068.0069.0068.0068.0067.0067.0066.0067.0065.0066.0065.0065.0064.0064.0064.0063.0063.0063.0062.0062.0061.0061.0061.006.0061.0059.006.0059.0058.0059.0058.0057.0058.0056.0057.0056.0056.0056.0055.0055.0054.0055.0053.0054.0053.0053.0052.0053.0051.0052.0051.0051.005.0051.0049.005.0049.0049.0049.0048.0048.0047.0047.0047.0047.0046.0046.0046.0045.0045.0045.0044.0044.0044.0043.0043.0043.0043.0042.0042.0041.0042.0041.004.004.004.004.004.0039.0039.0038.0038.0038.0038.0037.0037.0037.0036.0036.0036.0036.0035.0035.0035.0034.0034.0034.0034.0033.0033.0032.0033.0032.0032.0031.0032.0031.003.0031.003.003.0029.003.0029.0028.0029.0028.0028.0028.0027.0027.0027.0027.0026.0026.0026.0026.0025.0025.0025.0024.0024.0024.0024.0024.0023.0023.0023.0022.0022.0022.0022.0021.0022.002.0021.0021.002.002.0019.002.0019.0019.0019.0018.0019.0018.0017.0018.0017.0017.0017.0017.0016.0016.0016.0016.0015.0015.0015.0015.0015.0014.0014.0014.0014.0013.0013.0013.0013.0012.0013.0012.0012.0011.0012.0011.0011.0011.001.001.0011.001.0009.001.0009.0009.0009.0009.0008.0008.0009.0007.0008.0008.0007.0007.0007.0006.0007.0006.0006.0006.0006.0005.0006.0005.0005.0004.0005.0004.0004.0004.0004.0004.0003.0004.0003.0003.0002.0003.0002.0002.0002.0002.0002.0001.0001.0002.0001.0001c0 .0001 0 .0001 1 .0001s1 0 1-.0001v-.0001s0 0 0-.0001c0-.0001 0-.0001 0-.0002 0 0 0 0 0-.0001v-.0001c0-.0001 0-.0001 0-.0002s0-.0001 0-.0002c0 0 0-.0001 0-.0002 0 0 0-.0001 0-.0002s0-.0001 0-.0002 0-.0002 0-.0003 0-.0002 0-.0002c0-.0001 0-.0002 0-.0003s0-.0002 0-.0003 0-.0003 0-.0004 0-.0002 0-.0003 0-.0002 0-.0004c0-.0001 0-.0002 0-.0004 0-.0001 0-.0002 0-.0004 0-.0001 0-.0002 0-.0004 0-.0001 0-.0003 0-.0004 0-.0002 0-.0003 0-.0005 0-.0001 0-.0003 0-.0004 0-.0002 0-.0004 0-.0005 0-.0002 0-.0004 0-.0005 0-.0002 0-.0004 0-.0006 0-.0001 0-.0003 0-.0005s0-.0004 0-.0006 0-.0004 0-.0006 0-.0004 0-.0006 0-.0004 0-.0006 0-.0004 0-.0007c0-.0002 0-.0004 0-.0006 0-.0003 0-.0005 0-.0007s0-.0005 0-.0007c0-.0003 0-.0005 0-.0007 0-.0003 0-.0005 0-.0008 0-.0002 0-.0005 0-.0008 0-.0002 0-.0005 0-.0007 0-.0003 0-.0006 0-.0009 0-.0002 0-.0005 0-.0008s0-.0005 0-.0008 0-.0006 0-.0009 0-.0006 0-.0009 0-.0006 0-.0009 0-.0006 0-.0009 0-.0007 0-.001 0-.0006 0-.0009c0-.0004 0-.0007 0-.001 0-.0004 0-.0007 0-.0011 0-.0003 0-.0006 0-.001 0-.0003 0-.0007 0-.001 0-.0004 0-.0008 0-.0011 0-.0004 0-.0008 0-.0011 0-.0004 0-.0008 0-.0011 0-.0004 0-.0008 0-.0012s0-.0008 0-.0011c0-.0004 0-.0008 0-.0012s0-.0008 0-.0012 0-.0009 0-.0013 0-.0008 0-.0012 0-.0009 0-.0013 0-.0009 0-.0013 0-.0009 0-.0013 0-.0009 0-.0013c0-.0005 0-.0009 0-.0014s0-.0009 0-.0014 0-.0009 0-.0014 0-.0009 0-.0014 0-.001 0-.0015 0-.001 0-.0015c0-.0004 0-.0009 0-.0015 0-.0005 0-.001 0-.0015s0-.001 0-.0015 0-.0011 0-.0016 0-.001 0-.0016c0-.0005 0-.001 0-.0016 0-.0005 0-.0011 0-.0016 0-.0006 0-.0011 0-.0017 0-.0005 0-.0011 0-.0017 0-.0005 0-.0011 0-.0017 0-.0005 0-.0011 0-.0017s0-.0012 0-.0018c0-.0005 0-.0011 0-.0017s0-.0012 0-.0018 0-.0012 0-.0019c0-.0006 0-.0012 0-.0018s0-.0013 0-.0019 0-.0012 0-.0019c0-.0006 0-.0013 0-.0019 0-.0007 0-.0013 0-.002 0-.0006 0-.0013 0-.0019 0-.0007 0-.0014 0-.002 0-.0007 0-.0014 0-.002 0-.0007 0-.0014 0-.0021s0-.0014 0-.0021c0-.0006 0-.0013 0-.002 0-.0008 0-.0015 0-.0022s0-.0014 0-.0021 0-.0015 0-.0022 0-.0014 0-.0022c0-.0007 0-.0015 0-.0022s0-.0015 0-.0022c0-.0008 0-.0016 0-.0023 0-.0008 0-.0015 0-.0023s0-.0016 0-.0023c0-.0008 0-.0016 0-.0024s0-.0016 0-.0024c0-.0007 0-.0015 0-.0024 0-.0008 0-.0016 0-.0024s0-.0016 0-.0024 0-.0017 0-.0025 0-.0017 0-.0025 0-.0017 0-.0025c0-.0009 0-.0017 0-.0026 0-.0008 0-.0017 0-.0026 0-.0008 0-.0017 0-.0026s0-.0017 0-.0026 0-.0018 0-.0027 0-.0018 0-.0027 0-.0018 0-.0027 0-.0018 0-.0027 0-.0019 0-.0028 0-.0018 0-.0028c0-.0009 0-.0019 0-.0028 0-.001 0-.0019 0-.0029 0-.0009 0-.0019 0-.0028 0-.001 0-.002 0-.0029 0-.001 0-.002 0-.003s0-.0019 0-.0029 0-.002 0-.003 0-.002 0-.003 0-.0021 0-.0031 0-.002 0-.003c0-.0011 0-.0021 0-.0031 0-.0011 0-.0021 0-.0032 0-.001 0-.0021 0-.0031 0-.0011 0-.0021 0-.0032s0-.0021 0-.0032 0-.0022 0-.0033c0-.001 0-.0021 0-.0032s0-.0022 0-.0033 0-.0022 0-.0033c0-.0012 0-.0023 0-.0034s0-.0022 0-.0034c0-.0011 0-.0022 0-.0034 0-.0011 0-.0023 0-.0034 0-.0012 0-.0023 0-.0035s0-.0023 0-.0035 0-.0023 0-.0035 0-.0024 0-.0036 0-.0024 0-.0036 0-.0024 0-.0036 0-.0024 0-.0036 0-.0025 0-.0037 0-.0024 0-.0037c0-.0012 0-.0025 0-.0037 0-.0013 0-.0025 0-.0038 0-.0012 0-.0025 0-.0038 0-.0012 0-.0025 0-.0038s0-.0026 0-.0038c0-.0013 0-.0026 0-.0039s0-.0026 0-.0039 0-.0027 0-.004 0-.0026 0-.004c0-.0013 0-.0026 0-.004 0-.0013 0-.0026 0-.004 0-.0013 0-.0027 0-.004 0-.0014 0-.0028 0-.0041 0-.0014 0-.0028 0-.0042 0-.0013 0-.0027 0-.0041s0-.0028 0-.0042 0-.0028 0-.0042 0-.0029 0-.0043 0-.0028 0-.0043c0-.0014 0-.0028 0-.0043 0-.0014 0-.0029 0-.0043 0-.0015 0-.0029 0-.0044 0-.0014 0-.0029 0-.0044s0-.0029 0-.0044 0-.003 0-.0045 0-.003 0-.0045 0-.003 0-.0045 0-.0031 0-.0046 0-.003 0-.0046c0-.0015 0-.0031 0-.0046 0-.0016 0-.0031 0-.0047 0-.0015 0-.0031 0-.0047 0-.0015 0-.0031 0-.0047s0-.0031 0-.0047 0-.0032 0-.0048 0-.0032 0-.0048c0-.0017 0-.0033 0-.0049s0-.0033 0-.0049 0-.0033 0-.0049 0-.0033 0-.005c0-.0016 0-.0033 0-.0049 0-.0017 0-.0034 0-.0051 0-.0016 0-.0033 0-.005s0-.0034 0-.0051 0-.0034 0-.0051 0-.0034 0-.0052c0-.0017 0-.0034 0-.0051 0-.0018 0-.0035 0-.0053 0-.0017 0-.0035 0-.0052 0-.0018 0-.0035 0-.0053s0-.0035 0-.0053 0-.0036 0-.0054c0-.0017 0-.0035 0-.0053s0-.0037 0-.0055 0-.0036 0-.0054 0-.0037 0-.0055 0-.0037 0-.0055c0-.0019 0-.0037 0-.0056 0-.0018 0-.0037 0-.0056 0-.0018 0-.0037 0-.0056s0-.0038 0-.0057c0-.0018 0-.0037 0-.0056s0-.0039 0-.0058 0-.0038 0-.0057c0-.002 0-.0039 0-.0058 0-.002 0-.0039 0-.0059 0-.0019 0-.0039 0-.0058 0-.002 0-.004 0-.0059 0-.002 0-.004 0-.006s0-.0039 0-.0059 0-.004 0-.0061c0-.002 0-.004 0-.006s0-.004 0-.0061c0-.002 0-.004 0-.0061 0-.002 0-.0041 0-.0061 0-.0021 0-.0042 0-.0062 0-.0021 0-.0042 0-.0062 0-.0021 0-.0042 0-.0063s0-.0042 0-.0063 0-.0042 0-.0063 0-.0043 0-.0064 0-.0042 0-.0064c0-.0021 0-.0043 0-.0064 0-.0022 0-.0043 0-.0065s0-.0043 0-.0065 0-.0044 0-.0066c0-.0021 0-.0043 0-.0065s0-.0044 0-.0067c0-.0022 0-.0044 0-.0066s0-.0045 0-.0067 0-.0045 0-.0067c0-.0023 0-.0045 0-.0068s0-.0045 0-.0068 0-.0046 0-.0069c0-.0022 0-.0045 0-.0068s0-.0046 0-.0069c0-.0024 0-.0047 0-.007s0-.0047 0-.007 0-.0047 0-.007c0-.0024 0-.0047 0-.0071s0-.0047 0-.0071 0-.0047 0-.0071 0-.0048 0-.0072 0-.0048 0-.0072 0-.0049 0-.0073 0-.0048 0-.0073c0-.0024 0-.0049 0-.0073 0-.0025 0-.0049 0-.0074 0-.0024 0-.0049 0-.0074s0-.0049 0-.0074 0-.005 0-.0075 0-.005 0-.0075c0-.0026 0-.0051 0-.0076s0-.0051 0-.0076 0-.0051 0-.0076c0-.0026 0-.0052 0-.0077 0-.0026 0-.0052 0-.0077 0-.0026 0-.0052 0-.0078s0-.0052 0-.0078 0-.0052 0-.0078c0-.0027 0-.0053 0-.0079s0-.0053 0-.0079c0-.0027 0-.0053 0-.008 0-.0026 0-.0053 0-.008 0-.0026 0-.0053 0-.008s0-.0054 0-.0081 0-.0054 0-.0081 0-.0054 0-.0081c0-.0028 0-.0055 0-.0082 0-.0028 0-.0055 0-.0083 0-.0027 0-.0055 0-.0082 0-.0028 0-.0056 0-.0083 0-.0028 0-.0056 0-.0084s0-.0056 0-.0084 0-.0056 0-.0084 0-.0057 0-.0085 0-.0057 0-.0085c0-.0029 0-.0057 0-.0086 0-.0028 0-.0057 0-.0086 0-.0028 0-.0057 0-.0086s0-.0058 0-.0087 0-.0058 0-.0087 0-.0058 0-.0088c0-.0029 0-.0058 0-.0088 0-.0029 0-.0058 0-.0088 0-.0029 0-.0059 0-.0089 0-.0029 0-.0059 0-.0089s0-.006 0-.009 0-.006 0-.009 0-.006 0-.009 0-.0061 0-.0091c0-.0031 0-.0061 0-.0091 0-.0031 0-.0062 0-.0092 0-.0031 0-.0062 0-.0092 0-.0031 0-.0062 0-.0093s0-.0062 0-.0093 0-.0062 0-.0093c0-.0032 0-.0063 0-.0094 0-.0032 0-.0063 0-.0095 0-.0031 0-.0063 0-.0094 0-.0032 0-.0064 0-.0095 0-.0032 0-.0064 0-.0096s0-.0064 0-.0096 0-.0064 0-.0096c0-.0033 0-.0065 0-.0097 0-.0033 0-.0065 0-.0097 0-.0033 0-.0065 0-.0098s0-.0065 0-.0098 0-.0066 0-.0099 0-.0066 0-.0099 0-.0066 0-.0099 0-.0067 0-.01 0-.0067 0-.01c0-.0034 0-.0067 0-.0101s0-.0067 0-.0101 0-.0068 0-.0102 0-.0068 0-.0102 0-.0068 0-.0102c0-.0035 0-.0069 0-.0103 0-.0035 0-.0069 0-.0104 0-.0034 0-.0069 0-.0103 0-.0035 0-.007 0-.0105 0-.0034 0-.0069 0-.0104s0-.007 0-.0105c0-.0036 0-.0071 0-.0106s0-.0071 0-.0106 0-.0071 0-.0107c0-.0035 0-.0071 0-.0106 0-.0036 0-.0072 0-.0108s0-.0072 0-.0108 0-.0072 0-.0108 0-.0072 0-.0109c0-.0036 0-.0072 0-.0109 0-.0036 0-.0073 0-.0109 0-.0037 0-.0074 0-.011 0-.0037 0-.0074 0-.0111s0-.0074 0-.0111 0-.0074 0-.0111 0-.0075 0-.0112c0-.0038 0-.0075 0-.0112 0-.0038 0-.0076 0-.0113 0-.0038 0-.0076 0-.0114 0-.0037 0-.0075 0-.0113s0-.0076 0-.0114c0-.0039 0-.0077 0-.0115s0-.0077 0-.0115c0-.0039 0-.0077 0-.0116 0-.0038 0-.0077 0-.0116 0-.0038 0-.0077 0-.0116s0-.0078 0-.0117 0-.0078 0-.0117c0-.004 0-.0079 0-.0118 0-.004 0-.0079 0-.0119 0-.0039 0-.0079 0-.0119 0-.0039 0-.0079 0-.0119s0-.008 0-.012 0-.008 0-.012 0-.008 0-.012c0-.0041 0-.0081 0-.0122 0-.004 0-.0081 0-.0121 0-.0041 0-.0082 0-.0122 0-.0041 0-.0082 0-.0123s0-.0082 0-.0123 0-.0082 0-.0124c0-.0041 0-.0082 0-.0124 0-.0041 0-.0082 0-.0124s0-.0083 0-.0125 0-.0084 0-.0125c0-.0042 0-.0084 0-.0126s0-.0085 0-.0127 0-.0084 0-.0127c0-.0042 0-.0084 0-.0127s0-.0085 0-.0128 0-.0085 0-.0128 0-.0086 0-.0129 0-.0086 0-.0129 0-.0087 0-.013 0-.0087 0-.013c0-.0044 0-.0087 0-.0131s0-.0088 0-.0131c0-.0044 0-.0088 0-.0132s0-.0088 0-.0132 0-.0089 0-.0133 0-.0089 0-.0133c0-.0045 0-.0089 0-.0134s0-.0089 0-.0134 0-.009 0-.0135 0-.009 0-.0135 0-.009 0-.0136c0-.0045 0-.009 0-.0136 0-.0045 0-.0091 0-.0137 0-.0045 0-.0091 0-.0137s0-.0092 0-.0137c0-.0046 0-.0093 0-.0139s0-.0092 0-.0138c0-.0047 0-.0093 0-.014 0-.0046 0-.0093 0-.0139 0-.0047 0-.0094 0-.014 0-.0047 0-.0094 0-.0141s0-.0094 0-.0141 0-.0095 0-.0142 0-.0095 0-.0142c0-.0048 0-.0095 0-.0143s0-.0095 0-.0143 0-.0096 0-.0144 0-.0096 0-.0144 0-.0096 0-.0145c0-.0048 0-.0097 0-.0145 0-.0049 0-.0097 0-.0146s0-.0097 0-.0146 0-.0098 0-.0147 0-.0098 0-.0147 0-.0099 0-.0148 0-.0099 0-.0148c0-.005 0-.01 0-.0149 0-.005 0-.01 0-.015s0-.01 0-.015 0-.01 0-.015 0-.0101 0-.0151 0-.0101 0-.0151c0-.0051 0-.0102 0-.0152 0-.0051 0-.0102 0-.0153s0-.0102 0-.0153 0-.0102 0-.0153c0-.0052 0-.0103 0-.0154 0-.0052 0-.0103 0-.0155s0-.0103 0-.0155 0-.0104 0-.0156 0-.0104 0-.0156 0-.0104 0-.0157c0-.0052 0-.0105 0-.0157 0-.0053 0-.0105 0-.0158 0-.0052 0-.0105 0-.0158s0-.0106 0-.0159 0-.0106 0-.0159 0-.0107 0-.016c0-.0054 0-.0107 0-.0161 0-.0053 0-.0107 0-.0161 0-.0053 0-.0107 0-.0161s0-.0108 0-.0162 0-.0108 0-.0163c0-.0054 0-.0108 0-.0163 0-.0054 0-.0109 0-.0163 0-.0055 0-.011 0-.0165 0-.0054 0-.0109 0-.0164s0-.0111 0-.0166 0-.011 0-.0166c0-.0055 0-.011 0-.0166 0-.0055 0-.0111 0-.0167s0-.0111 0-.0167 0-.0112 0-.0168 0-.0113 0-.0169 0-.0112 0-.0169c0-.0056 0-.0113 0-.017 0-.0056 0-.0113 0-.017s0-.0113 0-.017 0-.0115 0-.0172 0-.0114 0-.0172c0-.0057 0-.0114 0-.0172s0-.0115 0-.0173 0-.0116 0-.0173c0-.0058 0-.0116 0-.0174 0-.0059 0-.0117 0-.0175s0-.0117 0-.0175c0-.0059 0-.0117 0-.0176s0-.0117 0-.0176 0-.0118 0-.0177 0-.0118 0-.0178c0-.0059 0-.0118 0-.0177 0-.006 0-.0119 0-.0179s0-.0119 0-.0179 0-.012 0-.018 0-.012 0-.018 0-.012 0-.0181c0-.006 0-.012 0-.0181s0-.0121 0-.0182 0-.0121 0-.0182 0-.0122 0-.0183c0-.0062 0-.0123 0-.0184s0-.0123 0-.0184c0-.0062 0-.0123 0-.0185s0-.0123 0-.0185 0-.0124 0-.0186 0-.0124 0-.0187c0-.0062 0-.0124 0-.0187 0-.0062 0-.0125 0-.0187 0-.0063 0-.0126 0-.0188 0-.0063 0-.0126 0-.0189s0-.0126 0-.019c0-.0063 0-.0126 0-.0189 0-.0064 0-.0127 0-.0191s0-.0127 0-.0191zm2 0c0-1.2391-.5424-2.1237-1.3195-2.7346-.7175-.564-1.6252-.8864-2.3714-1.1289-.8248-.2681-1.438-.4384-1.8953-.6861-.4066-.2202-.4138-.3494-.4138-.4504h-2c0 1.149.7428 1.8198 1.4612 2.209.6677.3617 1.5545.6101 2.2297.8295.7538.245 1.3461.4789 1.7536.7992.3479.2735.5555.6014.5555 1.1623z" fill="#646867"/></svg>