<svg viewBox="0 0 36 30" xmlns="http://www.w3.org/2000/svg"><path clip-rule="evenodd" d="m26 3h-16c-3.31371 0-6 2.68629-6 6v11.5884c0 1.3319 1.07969 2.4116 2.41155 2.4116h13.55465c1.7621 0 2.9854 1.1807 3.36 2.5897l1.2871-1.1441c1.0476-.9312 2.4005-1.4456 3.8022-1.4456 1.9797 0 3.5845-1.6048 3.5845-3.5845v-10.4155c0-3.31371-2.6863-6-6-6zm-3.5065 25.8656c.1908-.0776.3686-.1875.5251-.3266l2.9235-2.5986c.6815-.6058 1.5616-.9404 2.4734-.9404 3.0842 0 5.5845-2.5003 5.5845-5.5845v-10.4155c0-4.41828-3.5817-8-8-8h-16c-4.41828 0-8 3.58172-8 8v11.5884c0 2.4365 1.97512 4.4116 4.41155 4.4116h13.55465c1.1141 0 1.7206 1.1123 1.3847 2-.0003.0008-.0006.0016-.0009.0024-.0232.061-.0508.1209-.0831.1793-.0994.1802-.2426.3461-.4336.485-.5773.4199-.2803 1.3333.4336 1.3333h.5392c.1872 0 .3717-.0288.5475-.0841.0473-.0148.094-.0316.1399-.0503z" fill="#b6b9b8" fill-rule="evenodd"/><path d="m18 9h4m0 0v4m0-4-8 8" stroke="#646867" stroke-linecap="round" stroke-linejoin="round" stroke-width="2"/></svg>