<svg viewBox="0 0 36 30" xmlns="http://www.w3.org/2000/svg"><g clip-rule="evenodd" fill-rule="evenodd"><path d="m26 3h-16c-3.31371 0-6 2.68629-6 6v11.5884c0 1.3319 1.07969 2.4116 2.41155 2.4116h13.55465c1.7621 0 2.9854 1.1807 3.36 2.5897l1.2871-1.1441c1.0476-.9312 2.4005-1.4456 3.8022-1.4456 1.9797 0 3.5845-1.6048 3.5845-3.5845v-10.4155c0-3.31371-2.6863-6-6-6zm-3.5065 25.8656c.1908-.0776.3686-.1875.5251-.3266l2.9235-2.5986c.6815-.6058 1.5616-.9404 2.4734-.9404 3.0842 0 5.5845-2.5003 5.5845-5.5845v-10.4155c0-4.41828-3.5817-8-8-8h-16c-4.41828 0-8 3.58172-8 8v11.5884c0 2.4365 1.97512 4.4116 4.41155 4.4116h13.55465c1.1141 0 1.7206 1.1123 1.3847 2-.0003.0008-.0006.0016-.0009.0024-.0232.061-.0508.1209-.0831.1793-.0994.1802-.2426.3461-.4336.485-.5773.4199-.2803 1.3333.4336 1.3333h.5392c.1872 0 .3717-.0288.5475-.0841.0473-.0148.094-.0316.1399-.0503z" fill="#b6b9b8"/><path d="m17.5285 7.14711c-.568-.12424-1.1893-.1573-1.7455-.14456-.5402.01237-1.0283.07156-1.4359.21832-.5197.18707-1.0926-.08253-1.2796-.60216-.1871-.51964.0825-1.09254.6021-1.27961.7011-.2524 1.4357-.32155 2.0676-.33602.653-.01496 1.4444.02087 2.2187.19022.7647.16727 1.5958.4828 2.2417 1.08953.5327.50029.9116 1.18903 1.1152 1.9153.1552.06719.3079.13847.4582.2132 1.0317.51312 2.4112 1.36946 2.4531 3.18397.0404 1.756-.7201 3.2066-1.9048 4.3234-.3505.3304-.7186.6439-1.1032.937.0507.4209.0152.8496-.109 1.244-.231.7331-.6803 1.2816-1.1387 1.7029-.3946.3625-.8449.6722-1.2112.9242-.0477.0328-.094.0646-.1385.0954-.4541.3144-1.077.2011-1.3914-.253-.3143-.4541-.2011-1.077.253-1.3914.0485-.0336.0962-.0664.1431-.0988.3253-.2244.6124-.4224.8663-.6383-.3939.1644-.7986.3077-1.2133.4274-.044.0127-.0942.0277-.1498.0442-.3425.1018-.8881.264-1.426.3353-.5696.0755-1.5192.1093-2.2022-.5472-.6365-.6117-.5674-1.4151-.4136-1.904.1559-.4955.4663-.9483.7841-1.2408.9092-.8367 1.986-1.2181 3.1135-1.3343.5289-.0546 1.1729-.0609 1.8035.0798.5067.113 1.0505.3322 1.5049.7379.225-.183.444-.3751.6566-.5756.852-.8032 1.3023-1.7339 1.2772-2.822-.0109-.4733-.2508-.812-.8791-1.1879-.2538.8849-.821 1.5477-1.4616 2.0251-.733.5464-1.6024.8843-2.358 1.0931-1.0016.2768-2.0657.4404-3.1163.46l-.0131.0003c-.3922.0074-1.3175.025-1.9151-.7818-.626-.8451-.5734-1.7495-.2286-2.4722.3136-.6572.862-1.17348 1.3127-1.51468 1.3358-1.01124 3.0171-1.65347 4.7379-1.69362.1035-.00242.2064-.00226.3086.00035-.2726-.18207-.6372-.32532-1.0835-.42294zm1.9403 2.53802c-.3712-.08395-.7438-.12472-1.1188-.11597-1.2646.0295-2.5461.50804-3.5773 1.28874-.3373.2554-.5993.5392-.7149.7814-.0521.1093-.0599.1797-.0577.2205.0015.0281.0089.0796.0611.1606.0189.0032.0457.0066.0827.009.0607.0039.1327.0045.2282.0027.8729-.0164 1.7707-.1531 2.6211-.3881.6252-.1728 1.2351-.4258 1.6955-.769.4476-.3336.7087-.7144.7778-1.17378.0008-.00535.0016-.01071.0023-.01609zm-1.05 6.58437c-.0222-.0057-.0449-.0112-.0683-.0164-.3522-.0785-.7653-.0834-1.163-.0424-.8.0825-1.4399.334-1.9643.8166-.0284.0261-.0772.0806-.1273.158-.0216.0335-.0404.0666-.0564.0983.0868.0067.2148.0056.3983-.0187.3675-.0487.74-.1584 1.0911-.2619.0651-.0192.1294-.0381.1928-.0564.5861-.1692 1.1531-.3975 1.6971-.6771z" fill="#646867"/></g></svg>